<?xml version="1.0" encoding="utf-8"?>
<svg version="1.1" xmlns="http://www.w3.org/2000/svg" fill="#cccccc" viewBox="0 0 500 500" xml:space="preserve">
    <g>
	<path d="M96.9,445.6c-19.2,0-33.8,0-47.4-0.1c-12.5,0-25.1-5.4-34.4-14.6c-9.5-9.4-14.8-21.5-14.9-34.2C0,370.1,0,343,0,316.9
		c0-10.9,0-21.8,0-32.7c0-10.4,0-20.7,0-31.1c0-30.6,0-62.2,0.1-93.2c0-1.7,0-3.4,0-5.2c0-8.1-0.1-16.5,1.4-24.3
		c4.2-22.5,25.2-39.5,48.8-39.5l22.4,0c14.2,0,28.4,0,42.7,0c8,0,16.1,0,24.1,0c3.6,0,6-1.6,7.2-4.9c3-7.6,6.8-13.8,11.8-18.7
		c8.7-8.6,19.1-12.9,31.9-12.9l0.6,0c16.4,0.2,32.8,0.2,45.3,0.2c6.1,0,12.2,0,18.3,0c6.1,0,12.2,0,18.3,0l4.9,0c4.7,0,9.3,0,14,0
		c4.6,0,9.3,0,13.9,0c1.6,0,3.2,0,4.8,0c18.4,0.1,32,9,40.4,26.5c3.5,7.3,7.6,10,15.2,10l0.5,0c11.3-0.2,23.4-0.3,37.9-0.3
		c10.9,0,22.1,0,32.8,0.1l12.6,0.1c27,0.1,49.4,22,49.9,48.9c0.3,15.8,0.2,31.8,0.2,47.3c0,6.8-0.1,13.7-0.1,20.5l0,124.4
		c0,6.8,0,13.7,0,20.5c0,14.5,0.1,29.5-0.1,44.2c-0.1,12.5-5.6,25-14.9,34.2c-9.4,9.2-21.9,14.6-34.4,14.6c-17.4,0-34.9,0-52.3,0
		c-12.9,0-25.7,0-38.6,0c-12.9,0-25.7,0-38.6,0h-75.3v0.1l-80.8,0C142.2,445.6,119.5,445.6,96.9,445.6z M85.3,119
		c-10.5,0-21,0-31.5,0c-2.9,0-6.1,0-9.2,0.8c-10.2,2.7-16.2,11.1-16.2,22.6c0,83.8,0,167.6,0,251.3c0,14.5,9.1,23.6,23.7,23.6
		c7.7,0,40.9,0,40.9,0l161.1,0v0l109.3,0c17.8,0,35.5,0,53.3,0l32.3,0c13.2,0,22.7-9.4,22.7-22.3c0-84.4,0-168.8,0-253.3
		c0-13.4-9.4-22.8-22.9-22.8c-12.1,0-24.1,0-36.1,0c-24.5,0-49.7,0-74.6,0.1c-0.5,0-0.7,0-0.8-0.1c-0.1-0.1-0.2-0.3-0.4-0.8
		c-3.9-9.1-8-18-12-26.5c-2.7-5.8-7.4-8.9-13.3-8.9c-18.4,0-36.9,0-55.3,0c-22.5,0-45,0-67.5,0c-4.5,0-8.2,1.8-10.7,5.1
		c-1.6,2.1-3,4.5-4.2,7c-3.5,7.6-7,15.4-10.7,23.9c0,0.1-0.1,0.2-0.1,0.3c0,0,0,0-0.1,0c-2.7,0-5.6-0.1-9-0.1c-2.3,0-4.6,0-7,0
		c-2.3,0-4.6,0-6.9,0C139.9,119,95.6,119,85.3,119z"/>
	<path d="M250.2,373.1c-58,0-105.1-47.2-105.2-105.1c0-27.6,10.9-53.8,30.8-73.7c19.9-19.9,46-30.9,73.5-30.9
		c28.3,0,54.8,10.9,74.7,30.8c19.9,19.9,30.8,46.4,30.8,74.6c0,27.5-11,53.7-30.9,73.6C304,362.1,277.9,373.1,250.2,373.1
		L250.2,373.1z M250.2,191.5c-42.3,0-76.8,34.2-76.9,76.3c-0.1,20.6,7.9,39.9,22.3,54.4c14.5,14.5,33.8,22.5,54.5,22.5h0.1
		c42.8-0.1,76.3-34,76.3-77.2C326.5,225.7,292.3,191.6,250.2,191.5L250.2,191.5z"/>
	<path d="M68.8,159.4c12,0,23.8,0,35.8,0c0,12,0,23.9,0,36c-11.8,0-23.7,0-35.8,0C68.8,183.4,68.8,171.5,68.8,159.4z"/>
</g>
</svg>
