<?xml version="1.0" encoding="utf-8"?>
<svg version="1.1" id="Слой_1" fill="#47B900" xmlns="http://www.w3.org/2000/svg" viewBox="0 0 500 500" xml:space="preserve">
<g>
	<g>
		<path d="M273.5,277.6c-1.7,0-3.4,0-5.3-0.1c-5.8-0.2-11.9-1.5-17.8-2.7l-0.3-0.1c-17.8-3.7-29.2-16.4-38.8-29.5
			c-14.5-19.7-23.4-42.1-32.8-67.3c-2.4-6.4-5.9-11-11.4-14.9c-9.7-6.9-15.6-16.9-16.7-28c-1-10.3,2.3-20.5,9.2-27.9
			c5.3-5.7,7.9-12.2,8.1-20.5c0.8-32.1,15.8-55.3,45.8-71c15.3-8,29.9-12.5,44.6-13.8c1.2-0.1,2.2-0.5,3-0.7c0.1,0,0.2-0.1,0.3-0.1
			h22.3c3.1,0.6,6.3,1,9.4,1.5c7.1,1.1,13.8,2,20.3,4c26.2,7.8,44.3,21,55.5,40.5c7.5,13,9.3,27.4,10.7,43.5c0.4,4.7,2.6,9.8,5.6,13
			c8.3,8.8,12.2,20.7,10.7,32.5c-1.5,11.9-8.4,22.4-18.8,28.9c-3.2,2-6,5.7-8.4,11.3c-2.7,6.3-5.3,12.7-7.9,19
			c-3.3,8.1-6.6,16.4-10.2,24.4c-7.9,17.4-18,31.5-30.9,43C307.9,273,293.7,277.6,273.5,277.6z M256.9,60.7c-1.3,1.5-2.7,3-3.9,4.6
			c-2.9,3.4-5.9,6.9-9.2,10c-12,11.3-27.2,19.5-47.7,25.8c-11.1,3.4-19.7,8.4-26.2,15.3c-7.3,7.6-5.6,17-3.8,23.3
			c2.3,8,8.2,13.2,16.2,14.1c2.5,0.3,3.4,1.1,4.4,4c0.9,2.5,1.7,5,2.6,7.5c2.1,6.3,4.4,12.7,6.8,19c7.3,19.2,15.7,39.4,30,56.5
			l0.7,0.9c6.8,8.2,14.5,17.4,27.6,19.4c6.8,1,13,1.5,18.8,1.5c7.3,0,14-0.8,20.5-2.3c5.4-1.3,10.7-4,14.6-7.5
			c10-8.8,18.3-19.4,25.6-32.6c11.7-21.2,19.2-44.2,25.4-64.1c0.6-2.1,1.1-2.5,3.2-2.8c11-1.7,16.5-7,18.6-17.6
			c2-10.4-1.3-15.9-4.5-18.7c-5.2-4.6-11.7-8.9-19.4-12.8c-3.2-1.6-6.8-1.7-10-1.7c-1.2,0-2.4,0-3.4-0.1c-23.8-2.2-43.5-9.4-60.1-22
			c-5.1-3.9-9.6-8.5-14.4-13.4c-2.1-2.2-4.4-4.5-6.6-6.6l-3-2.9L256.9,60.7z M259.7,29.2c4.1,0,5.7,2.6,8.3,8.4l0.2,0.5
			c11.4,25.3,32.1,41.4,61.6,47.7c6.8,1.5,13.8,2.2,20.5,2.9c3,0.3,6.1,0.6,9.1,1l4.1,0.5L364,86c2-20.2-10.6-43.9-29.4-55
			c-16.1-9.6-34.1-14.9-53.4-15.8c-2.3-0.1-4.7-0.2-6.9-0.2c-31.3,0-56.2,9.9-76.1,30.4c-9.9,10.2-15.3,23.1-16.1,38.4l-0.3,4.8
			l4.8-0.6c0.8-0.1,1.5-0.2,2.1-0.2c1.3-0.1,2.5-0.2,3.7-0.6c28.7-8.1,47.8-23.9,58.5-48.5l0.5-1.2c2.5-5.9,3.9-8.3,8.1-8.4
			L259.7,29.2z"/>
		<path d="M243.5,455c-0.5,0-1,0-1.5-0.1c-2.1-0.3-4-1.4-4.9-2.9c-0.6-1.1-0.7-2.2-0.2-3.4c7.1-17.1,14.1-32.2,21.2-46.3
			c0.9-1.7,2-2.6,3.4-2.6c1.5,0,3.2,0.9,4.8,2.5c2.2,2.3,4.1,4.9,6.4,7.9c1.1,1.5,2.3,3,3.5,4.7l3.6,4.6l6.8-10.9
			c3.2-5.1,6.2-10,9.2-14.9c1.3-2.1,2.3-3.7,3.4-5.1c2.2-3.1,4-3.1,4.6-3.1c1,0,2.1,0.3,3.4,1c5.5,3,3.6,6.7,3,7.9
			c-6.3,12-13.1,23.7-18.3,32.6c-2.4,4.1-5.4,8-8.3,11.8l-0.6,0.8c-1.5,1.9-3.2,3-4.9,3c-1.7,0-3.5-1.1-5-3c-1.4-1.8-2.7-3.8-4.2-6
			c-0.7-1.1-1.5-2.3-2.3-3.5l-3.9-5.7l-3.1,6.1c-1.2,2.3-2.3,4.5-3.4,6.7c-2.6,5-5,9.8-7.4,14.7C247.5,454,246.1,455,243.5,455z"/>
		<path d="M46,500c0.9-25.6,3.8-43.5,7.1-51.7c1.8-1.3,4.7-3.8,10-8.1c1.2-1,2.5-2,3.7-3c-0.1,0.8-0.2,1.7-0.4,2.5
			C60,463,60,488,60,488c6.6,0.1,40.3-0.2,41.4,1c0.5,0.6-0.4,9.3-0.4,11C92.8,500,54.2,500,46,500z"/>
	</g>
	<path d="M500,500c-0.9,0-210,0-210,0l-8.8-12.6c12,0,23.9,0,35.9,0c12.5,0,25,0,37.4,0c12.5,0,25,0,37.4,0h10.6V365.9
		c0,0-19.4,0-22.5,0c-3.5,0-7.1,0-10.6,0l-16.4-0.1H170.3v-49l0-0.2c-0.2-2-0.3-4.1-0.4-6.4c-0.1-1.6-0.2-3.2-0.3-5l-0.3-4.8
		l-4.7,1.1c-9.8,2.3-26.1,9.3-36.3,15.4l-9.4-9.4c18.5-11.2,63.4-26.5,81.8-29.6c0.9-0.2,1.9-0.2,2.8-0.2c4.9,0,9.4,2.1,14.2,4.4
		c0.7,0.3,1.5,0.7,2.2,1c12.1,5.5,26.6,11.4,42.9,13.3c4.3,0.5,8.6,0.8,12.7,0.8c19.6,0,36.9-5.9,51.4-17.6
		c3.6-2.9,7.1-4.2,11.1-4.2c1.4,0,2.9,0.2,4.6,0.5c37.8,8,69,22.3,95.3,44c32.4,26.7,52.3,59.9,59.4,98.8c0.7,3.7,1.2,7.4,1.7,11.1
		c0.2,1.7,0.5,3.3,0.7,5L500,500z M417.5,369.8V487h66.9V483c0-4.2,0-8.4,0-12.6c0-9.6,0.1-18.8-0.1-28.1
		c-0.3-12.8-1.3-27.7-6.6-42.3c-13.9-37.9-39.9-67.5-77.3-88.1c-4-2.2-7.9-4.2-12.1-6.4c-1.9-1-3.9-2-5.9-3l-5.9-3.1v51.2h41.1v15.2
		L417.5,369.8z M185.5,350.6h176V295l-3.2-0.7c-1.4-0.3-2.7-0.6-4-1c-4.1-1-8.4-2.1-12.8-2.1c-5.3,0-10.2,1.5-14.8,4.7
		c-15.5,10.6-32.4,16-50.2,16c-8.7,0-17.6-1.3-26.6-3.8c-11.9-3.4-23.8-8.1-35.3-12.6c-1.8-0.7-3.6-1.4-5.4-2.1
		c-2.4-1-5-1.4-7.5-1.4c-4.8,0-9.1,1.7-11.8,2.9c-3.5,1.6-3.7,5.8-3.9,9.8c-0.1,1.1-0.1,2.2-0.2,3c-0.2,1.8-0.2,3.6-0.2,5.3v4.3h0.1
		V350.6z"/>
</g>
<g>
	<g>
		<path d="M174.4,490.5c-0.2,0-0.4,0-0.6,0c-1.6-0.2-3.1-1.2-3.9-2.6c-1.5-2.6-0.9-5.7,1.6-7.7c2-1.6,4.1-3.2,6.1-4.7
			c0.9-0.7,1.8-1.4,2.7-2.1c0.9-0.7,1.9-1.4,2.8-2.2c2.2-1.7,4.4-3.4,6.6-5c1.3-0.9,2.6-1.4,3.8-1.4c0.2,0,0.4,0,0.7,0
			c1.3,0.2,2.4,0.7,3.3,1.7c1.1,1.2,1.7,2.7,1.6,4.1c-0.1,1.4-0.7,2.7-1.8,3.6c-6.6,5.8-13.3,10.9-20,15.2
			C176.5,490.2,175.5,490.5,174.4,490.5z"/>
		<path d="M158.4,471.1c-0.2,0-0.5,0-0.7,0c-1.5-0.2-2.7-0.9-3.6-2.1c-2-2.7-1.1-6.1,2.2-8.8c1.9-1.5,3.9-3,5.8-4.4l2.5-1.9
			c0.8-0.6,1.7-1.3,2.5-1.9c1.9-1.5,3.9-3,5.8-4.4c1.7-1.2,3.3-1.9,4.9-1.9c0.2,0,0.4,0,0.6,0c1.4,0.2,2.5,0.9,3.5,2
			c1,1.2,1.3,2.5,1.2,3.9c-0.3,2.2-1.8,3.8-3.1,4.8c-5,3.9-10.5,8.1-16.9,12.9C161.6,470.5,160,471.1,158.4,471.1z"/>
		<path d="M186.4,499.6c0.1-0.1,0.1-0.1,0.2-0.2c2.1-1.6,4.2-3.3,6.1-4.7c0.9-0.7,1.8-1.4,2.7-2.1c0,0,2.8-2.2,2.9-2.2
			c2.2-1.7,4.4-3.4,6.6-5c1.1-0.8,2.4-1.2,3.6-1.2c0.2,0,0.4,0,0.6,0c1.4,0.2,2.6,0.9,3.5,2c0.9,1.1,1.3,2.5,1.1,3.9
			c-0.2,1.5-1,3-2.4,4c-2.3,1.8-4.6,3.6-7,5.4H186.4z"/>
	</g>
	<path d="M242.7,499.6c-6.4-8.4-12.8-16.8-19-24.9L207,452.9c-7.3-9.5-14.8-19.4-22.2-29.1l-2.5-3.3l-3.2,2.5
		c-17,13.2-34.2,26.3-51,39l-3.3,2.5l2.5,3.2c8,10.4,16.1,20.9,23.8,31.1l0.6,0.9h-19c0.1-0.1,2.6-2.6,2.6-2.6l-2.1-2.8l-0.2-0.3
		c-2.2-2.8-4.3-5.7-6.4-8.4c-3.5-4.6-7-9.4-10.8-13.9c-10.7-12.8-18-27.5-22.1-44.8c-1-4-2.1-8.4-3.7-13.8l-3.8-13.5L82.4,413
		c-0.3,1.1-1.1,2.1-2.2,2.8c-1,0.7-2.1,1.1-3.2,1.1c-0.2,0-0.4,0-0.6,0c-1.2-0.1-2.4-0.8-3.5-1.8c-0.6-0.5-1.1-1.2-1.6-1.9l-2.5-3.4
		l-3.3,2.5c-7.5,5.8-15.2,11.7-22.1,16.9l-9.8,7.5l0.5,2.5c0.6,3-0.4,5.1-3,6.3c-0.9,0.4-1.7,0.6-2.6,0.6c-0.2,0-0.4,0-0.6,0
		c-2.5-0.3-4.2-2.6-4.9-3.5c-5.9-7.6-12-15.7-19.5-25.5c-0.7-0.9-1.1-1.9-1.6-2.8c-1.1-2.3-0.6-4.5,1.2-6.2c1.1-1,2.4-1.6,3.7-1.6
		c0.2,0,0.3,0,0.5,0c0.7,0.1,1.4,0.4,2.1,0.8l2.4,1.6l2.3-1.7c0.2-0.1,0.4-0.3,0.7-0.5c8.7-7,17.5-13.8,26.1-20.5
		c0.6-0.5,1.4-0.9,2.2-1.3l0.6-0.3l4.8-2.5l-3.8-3.9c-0.5-0.5-1.1-1.2-1.5-1.9c-1.4-2.8-1-5.3,1.1-7.3c1-0.9,2.2-1.4,3.4-1.4
		c0.2,0,0.4,0,0.6,0c1,0.1,2,0.5,3,1.2c1,0.7,1.9,1.5,2.7,2.7l2.5,3.4l3.3-2.6c3.8-3,7.9-6.1,12.8-9.8l3.6-2.7l-3-3.3
		c-5.1-5.6-7.4-12.4-9.7-19.6c-0.4-1.3-0.9-2.6-1.3-3.9c-2-5.7-1.2-7,2.8-9.9l3.4-2.5l-2.5-3.3c-11.1-14.4-22.2-29-33.1-43.2
		l-13.6-17.8c-1-1.3-2-2.6-2.4-4.2c-0.8-2.9-0.1-5,2.1-6.4c1-0.7,2.1-1,3.1-1c0.2,0,0.4,0,0.6,0c1.1,0.1,2.2,0.7,3.2,1.6
		c0.7,0.6,1.2,1.3,1.8,2.1c0.2,0.3,0.4,0.5,0.5,0.7l10.5,13.7c11.9,15.5,24.1,31.5,36.1,47.4l2.9,3.6l3.2-2.8c2-1.7,3.4-2.4,4.9-2.4
		c0.2,0,0.4,0,0.6,0c1.5,0.2,3.1,1.1,4.6,2.1c0.9,0.6,1.7,1.1,2.6,1.7c6.7,4.3,13.6,8.8,18.1,15.8l1.6,2.4l2.8-0.7
		c0.5-0.1,0.9-0.2,1.4-0.2c0.2,0,0.4,0,0.6,0c1.6,0.2,3,1.1,4.3,2.9c2.5,3.5,5.2,6.9,7.8,10.2l2.4,3.1l2.6-0.7
		c0.5-0.1,1-0.2,1.5-0.2c0.2,0,0.4,0,0.6,0c1.9,0.2,3.5,1.4,5.4,3.9l24.3,31.9c28.3,37.1,57.7,75.5,86.4,113.2
		c1.3,1.7,2.3,3.3,3.3,5H242.7z M131.9,361.1c-11,8.5-21.7,16.6-34.6,26.4l-2.2,1.7l0.8,2.7c1.8,6.4,3.6,12.7,5.4,19.1l0.2,0.6
		c2.3,8.1,4.7,16.5,7.1,24.8c1.4,4.8,3.6,9.6,6.9,15.2l2.4,4l3.6-2.9c6-4.8,12.2-9.5,18.2-14l0.6-0.4c2.2-1.7,4.4-3.4,6.7-5.1
		c2.2-1.7,4.3-3.3,6.5-5l0.4-0.3c6-4.6,12.2-9.4,18.4-14l3.3-2.5l-2.5-3.3c-11.2-14.5-22.8-29.6-35.4-46.4l-2.5-3.3L131.9,361.1z
		 M51.5,392.9c-1.2,0.7-3,2-4.9,3.5l-5.3,4.1c-6.4,4.9-12.9,9.9-19.4,14.7l-3.5,2.6l2.9,3.3c0.9,1,1.8,2.2,2.6,3.4l2.4,3.7l3.4-2.7
		c3.3-2.6,6.8-5.3,10.1-7.8l0.1-0.1c1.4-1.1,2.8-2.1,4.2-3.2c1.4-1.1,2.9-2.2,4.3-3.3c3.4-2.6,6.8-5.3,10.3-7.8l3.3-2.4l-2.5-3.3
		c-1.5-2-2.5-3.2-3.2-4l-2.2-2.2L51.5,392.9z M113.3,345.7c-1.2,0.7-3,2-4.9,3.5l-10.5,8c-10.3,7.9-21,16-31.5,24l-3.3,2.5l2.6,3.3
		c1.3,1.6,2.4,3.1,3.3,4l2.2,2.2l2.7-1.6c1-0.6,2.4-1.7,4.4-3.2l19.2-14.7c2.1-1.6,4.2-3.2,6.4-4.9c5.5-4.2,11.1-8.5,16.8-12.7
		l3.3-2.5l-2.5-3.3c-1.3-1.8-2.5-3.2-3.3-4l-2.2-2.2L113.3,345.7z M83.8,323.2c-0.9,0.7-1.7,1.4-2.6,2l-0.2,0.1
		c-0.4,0.3-0.8,0.6-1.2,0.9c-2.5,1.9-3.8,3-4.5,3.9l-0.7,1l0,1.3c0,1.1,0.4,2.5,1.3,5.5l0.2,0.8c1.3,4.5,4,8.1,6.3,11.2l2.5,3.3
		l3.3-2.5c3.2-2.5,8-6.2,13.1-10l3.1-2.3l-2.2-3.2c-3.1-4.5-7.4-8.4-13.7-12.4l-2.4-1.5L83.8,323.2z"/>
</g>
</svg>
