<?xml version="1.0" encoding="utf-8"?>
<svg version="1.1" xmlns="http://www.w3.org/2000/svg" viewBox="0 0 500 500" width="22px" height="22px" fill="#ffffff" xml:space="preserve">
    <path d="M286.9,500h-87c-8.3,0-15-6.7-15-15V293.9h-53.3c-8.3,0-15-6.7-15-15v-84.2c0-8.3,6.7-15,15-15h53.3v-53.3c0-38.8,11.9-71.1,34.5-93.4c21.8-21.6,52.6-33,88.9-33c33.5,0,56.1,2.6,62.2,3.5c7.5,1,13,7.3,13,14.9v75.4c0,8.3-6.7,15-15,15h-39.9c-8,0-18.3,1-22.5,6c-2.9,3.4-4.2,9.8-4.2,20v45h66.6c4.3,0,8.4,1.9,11.3,5.1c2.8,3.2,4.2,7.5,3.6,11.8l-10.8,84.2c-1,7.5-7.3,13.1-14.9,13.1h-55.8V485C301.9,493.3,295.1,500,286.9,500z M214.8,470h57V278.9c0-8.3,6.7-15,15-15h57.6l7-54.2h-64.6c-8.3,0-15-6.7-15-15v-60c0-12.1,1.3-27.4,11.3-39.3c9.5-11.2,24.3-16.7,45.5-16.7h24.9V31.8c-10.3-0.9-25.9-1.8-45.3-1.8c-59.4,0-93.4,35.1-93.4,96.4v68.3c0,8.3-6.7,15-15,15h-53.3v54.2h53.3c8.3,0,15,6.7,15,15V470z"/>
</svg>
