<?xml version="1.0" encoding="utf-8"?>
<svg version="1.1" xmlns="http://www.w3.org/2000/svg" fill="#cccccc" viewBox="0 0 500 500" xml:space="preserve">
<g>
	<path d="M499.6,150c-0.9-4.1-3.6-9.5-11.6-11.3c-5.7-1.3-11.5-2.8-17.1-4.2c-2.8-0.7-5.6-1.4-8.5-2.1c-0.2-0.5-0.4-1.1-0.7-1.6
		c4.4-7.2,8.9-14.8,13.9-23.2c3.8-6.3,3-12.4-2.2-17.6c-5.2-5.2-10.4-10.4-15.6-15.6l-4.5-4.5c-3.2-3.2-6.4-4.7-9.9-4.7
		c-2.6,0-5.2,0.8-8.1,2.6c-2.2,1.3-4.4,2.6-6.6,3.9c-4.9,2.9-9.9,5.9-14.8,9c-1.4,0.9-1.8,0.9-1.8,0.9c0,0-0.1,0-0.4-0.2
		c-0.3-0.2-0.6-0.4-0.9-0.5c-2-8.3-4.2-17-6.7-26.7c-1.7-6.6-6.7-10.5-13.5-10.5l-12.2,0c-5.7,0-11.4,0-17.1,0c-0.8,0-1.9,0-3.2,0.3
		c-5.3,1.1-8.9,4.6-10.3,9.9c-0.1,0.3-0.2,0.6-0.2,0.9c-9-7.3-18.8-13.6-29.1-18.7c-18.8-9.3-38.9-14.6-59.7-15.7
		c-3-0.2-6-0.3-9-0.3c-10.4,0-20.9,1.1-31.1,3.2c-23.2,4.8-44.5,14.5-63.3,29c-22.8,17.6-39.7,40.2-50.2,67
		c-5.7,14.7-9.2,30.6-10.2,47.2c-1,16.5,1.3,32.6,6.9,47.7c4.9,13.1,12,26.3,21.9,40.2c4.8,6.8,9.8,13.6,14.7,20.3
		c4.8,6.6,9.8,13.4,14.6,20.2c8.2,11.5,13.6,21.7,17.1,31.9c2.4,7,3.5,13.6,3.4,20.1c-0.2,14.1-0.1,28.4-0.1,42.2l0,6.1
		c0,2.6,0.1,6.1,0.7,9.7c3.9,22.9,16.9,39,38.7,47.7c2.6,1.1,5.3,1.8,7.9,2.4c0,1.2,0,2.5,0,3.7c0.1,12.2,9.3,21.4,21.5,21.5
		c2.3,0,4.6,0,7,0c2.6,0,5.3,0,7.9,0c12.3,0,21.6-9.4,21.7-21.7c0-1.2,0-2.3,0-3.5c0.1,0,0.2,0,0.2-0.1c27.6-6.4,46.9-30.7,47-59
		l0-0.4c0.1-15,0.1-30.4,0-45.7c-0.1-10.7,2.3-21,7.2-31.8c5.2-11.1,12.1-21.3,18.2-29.8c0.1-0.2,0.2-0.3,0.4-0.5
		c2.4,2.2,5.7,3.2,9.7,3.2l28.7,0c7,0,12-3.9,13.7-10.7c0.5-2.2,1.1-4.4,1.6-6.6c1.6-6.2,3.2-12.7,4.7-19.1c0.1-0.4,0.2-0.7,0.3-0.9
		c0.6-0.1,1.2-0.3,1.7-0.5c7.7,4.7,15.7,9.5,23.9,14.3c2.2,1.3,4.6,2,7,2c3.4,0,6.6-1.4,9.2-3.9c7.3-7.2,14.5-14.4,21.4-21.4
		c4.5-4.6,5.3-10.9,1.9-16.5l-1.2-2c-4.2-7.1-8.6-14.5-13-21.7c0.3-0.6,0.5-1.1,0.7-1.7c9.6-2.3,18.4-4.5,26.8-6.7
		c1.5-0.4,3.1-1.1,4.7-2.2c3.9-2.5,5-6.6,5.5-8.5l0.2-0.7v-33.5L499.6,150z M299.7,392c-0.8,0.1-1.7,0.2-2.5,0.3
		c-12.4,1.6-24.8,3.1-37.2,4.6l-6.5,0.8c-9.2,1.1-18.4,2.3-27.6,3.4c-9.1,1.1-11.9,6.7-12.7,10c-1.1,4.1-0.2,8.3,2.3,11.6
		c2.5,3.2,6.3,5.1,10.4,5.1c0.5,0,0.9,0,1.4-0.1c4.3-0.4,8.6-1,12.8-1.5c1.5-0.2,3-0.4,4.5-0.6c10.7-1.3,21.5-2.7,32.2-4l12.6-1.6
		c-6.5,6.5-14.4,9.7-23.9,9.8c-3.9,0-7.9,0-11.8,0l-18.9,0c-16.8,0-30.3-11-33.8-27.3c-0.2-0.9-0.3-1.9-0.5-3l99.2-12.4V392z
		 M200.3,372.9v-11h87.8L200.3,372.9z M340.7,258.4c-7.1,9.3-15.4,20.4-22.5,32.2c-8.3,13.6-13.4,25.6-16.2,37.7
		c-0.5,2.1-0.9,4.3-1.2,6.4h-37.5l0-2.7c0-5,0-10,0-15c0-6.9-5.1-12.6-11.8-13.3c-0.5-0.1-1-0.1-1.4-0.1c-6.3,0-11.6,4.3-13,10.6
		c-0.3,1.2-0.3,2.3-0.3,3.3c0,5.3,0,10.7,0,16v1.1h-37c-1.4-8.6-4-17.4-7.8-26c-6.2-14-14.7-26.5-23-37.9c-2.7-3.8-5.5-7.6-8.3-11.3
		c-5.8-8-11.9-16.2-17.6-24.4c-8.5-12.2-14.3-23.9-18-35.9c-2.8-9.3-4-19-3.6-29c0.7-17.2,4.6-33.4,11.4-48.1
		c12.8-27.7,33.2-48.7,60.6-62.5c12.9-6.5,27-10.6,41.9-12.3c5-0.6,10-0.9,15-0.9c14,0,27.9,2.3,41.3,6.9
		c15.9,5.5,30.4,13.9,43,25.1c-4.4-2.7-8.8-5.3-13.1-7.9c-1.9-1.1-3.8-2.3-5.7-3.4c-2.3-1.4-4.7-2.1-7.1-2.1c-3.4,0-6.7,1.4-9.4,4.1
		c-7.1,7.1-14.1,14.1-21.2,21.2c-4.7,4.7-5.4,11-2,16.8l3.9,6.4c3.4,5.7,6.8,11.4,10.3,17.1c-0.2,0.5-0.5,1.1-0.7,1.6
		c-8.3,2-16.9,4.2-26.4,6.6c-6.9,1.7-10.7,6.7-10.7,13.8c0,9.6,0,19.2,0,28.9c0,7.2,3.8,12.1,10.7,13.8c7.9,2,17.1,4.3,26.4,6.6
		c0.2,0.6,0.5,1.2,0.7,1.7c-3.6,5.8-7.1,11.7-10.5,17.4c-0.3,0.4-0.5,0.9-0.8,1.3c0-0.7,0-1.4-0.2-2.1c-0.9-5.1-4-8.8-8.9-10.5
		c-1.5-0.5-2.9-0.7-4.4-0.7c-3.4,0-6.6,1.4-9.3,4c-2.8,2.8-5.7,5.6-8.5,8.5c-0.1,0.1-0.1,0.1-0.2,0.2l0.1-1.3l-0.6-1.3
		c-0.1-0.2-0.1-0.4-0.2-0.6c-0.5-1.3-1.2-3.4-2.9-5.1c-5-5.2-10.4-10.7-16.6-16.7c-2.4-2.3-5.5-3.6-8.8-3.6c-3.5,0-6.9,1.4-9.4,3.8
		c-5.2,5.1-5.4,13.3-0.5,18.4c5.5,5.7,11.1,11.3,16.6,16.6c2.4,2.3,5.4,3.6,8.7,3.6c1,0,2.1-0.1,3.1-0.4c-0.3,1.1-0.4,2.3-0.4,3.5
		c0,5.5,0,10.9,0,16.4l0,13.5c0,5.5,0,11,0,16.5c0,7.5,5.9,13.4,13.3,13.4c0.2,0,0.4,0,0.6,0c7.2-0.3,12.7-6.1,12.7-13.5
		c0-16.2,0-29.4,0-41.5c3.1-3,6.1-6,9.1-9l1.7-1.7c-0.6,4,0.8,7.9,4.1,11.3c6.9,6.9,13.8,13.8,20.7,20.7c2.9,2.9,6.2,4.4,9.7,4.4
		c2.5,0,5-0.8,7.5-2.3l7.7-4.6c5.2-3.1,10.4-6.2,15.6-9.4c0.5,0.2,1,0.3,1.5,0.4c0,0,0,0,0.1,0c0.1,0.2,0.3,0.7,0.6,1.7
		C342,256.1,342.1,256.6,340.7,258.4z M473.1,171.8c0,0.1,0,0.2,0,0.3l-11.4,2.8l-4.2,1.1c-2.7,0.7-5.4,1.4-8.1,2
		c-4.5,1.1-7.8,4-9.5,8.5c-1.6,4-3.4,8.2-5.2,12.5c-1.8,4.2-1.5,8.5,0.8,12.4l12.5,20.9l-7,6.8c0,0-17.9-10.8-20.6-12.4
		c-2.3-1.4-4.6-2.1-7.1-2.1c-2,0-4.1,0.5-6.2,1.5c-4.3,2-7.8,3.5-11,4.6c-5,1.8-8.2,5.4-9.5,10.6c-1.5,6.3-3.1,12.7-4.7,18.9
		c-0.3,1.3-0.7,2.7-1,4h-9.7c-0.5-2-1-3.9-1.5-5.9l-0.5-1.8c-1.3-5-2.5-10-3.7-15.1c-1.3-5.4-4.6-9-9.8-10.8
		c-3.7-1.2-7.4-3-10.6-4.5c-2.1-1-4.2-1.5-6.3-1.5c-2.6,0-5.1,0.7-7.5,2.2c-5.7,3.5-11.4,6.9-17.2,10.4l-3.2,1.9l-7-7
		c0.9-1.5,1.8-3.1,2.7-4.6c3.2-5.3,6.4-10.7,9.6-16c2.5-4.2,2.8-8.8,0.7-13.4c-1.6-3.6-3.1-7.2-4.7-11.5c-1.8-4.7-5.1-7.7-9.7-8.8
		c-6.4-1.6-12.7-3.2-19.1-4.8l-4.5-1.1v-9.8l13.8-3.5c3.2-0.8,6.4-1.6,9.6-2.4c3.2-0.8,7.5-2.9,9.8-8.9c1.3-3.4,2.9-7.4,4.7-11.3
		c2.1-4.6,1.9-9.3-0.7-13.5c-3.6-6-7.2-12-10.8-18l-1.5-2.6l7-6.9l11,6.6c3.2,1.9,6.5,3.9,9.7,5.8c2.2,1.3,4.6,2,7,2
		c1.9,0,3.8-0.4,5.7-1.2c2.5-1.1,5.2-2.2,7.7-3.2c1.7-0.7,3.4-1.4,5.1-2.1c4.1-1.7,6.9-4.9,8-9.3c1.5-5.8,2.9-11.7,4.4-17.5l1.5-6.1
		h9.7l0.2,0.8c1,4,2,8,3,12c0.9,3.5,1.7,7,2.6,10.5c1.2,4.8,4.3,8.3,9.1,10.1c3.6,1.3,7.3,2.9,11.2,4.7c2.1,1,4.2,1.5,6.3,1.5
		c2.5,0,4.9-0.7,7.2-2.1c6.8-4.1,13.7-8.3,20.5-12.4l7,6.8l-5.2,8.6c-0.7,1.2-1.4,2.4-2.1,3.5c-1.6,2.6-3.2,5.3-4.8,8
		c-2.9,4.6-3.1,9.5-0.7,14.4c1.6,3.3,3,6.8,4.4,10.5l0.2,0.5c1.8,4.6,5.1,7.6,9.7,8.8c3.6,0.9,7.3,1.8,10.9,2.7
		c4.2,1.1,8.5,2.1,12.7,3.2C473.1,165.5,473.1,168.6,473.1,171.8z"/>
	<path d="M60.2,188.4c4,0,7.6-1.4,10.2-4c2.4-2.5,3.8-5.8,3.7-9.3c-0.1-7.5-6-13.2-13.9-13.2l-23,0c-2,0-10,0-12,0
		c-4.6,0-8.1,0-11.4,0.1c-2.3,0-4.7,0.6-6.8,1.7c-5.3,2.8-7.9,8.9-6.3,14.9c1.6,6,6.7,9.9,13,9.9c7.7,0,15.3,0,23,0L60.2,188.4z"/>
	<path d="M74.8,232.6l-0.9,0l-0.9,0.2c-0.3,0.1-0.7,0.2-1,0.3c-0.9,0.2-2,0.5-3.1,1c-9.4,3.8-18.7,7.6-28.1,11.4
		c-3.5,1.4-6.3,4.1-7.7,7.4c-1.3,3.2-1.4,6.7,0,10c2.1,5,6.9,8.3,12.3,8.3c1.8,0,3.6-0.3,5.3-1c2.2-0.8,4.3-1.7,6.4-2.6l6.8-2.7
		c5.2-2.1,10.5-4.3,15.8-6.4c6-2.5,9.2-8.7,7.9-15.1C86.3,237.1,81.1,232.9,74.8,232.6z"/>
	<path d="M79.5,92c-10.2-4.2-20.3-8.3-28.8-11.7c-1.7-0.7-3.5-1-5.3-1c-5.4,0-10.3,3.2-12.3,8.3c-1.4,3.4-1.3,7.1,0.2,10.3
		c1.4,3.2,4.1,5.7,7.5,7.1c11.1,4.5,20.1,8.1,28.3,11.4c1.1,0.4,2.1,0.7,3,0.9c0.3,0.1,0.6,0.2,0.9,0.2l0.8,0.2l0.9,0
		c6.3-0.3,11.6-4.6,12.8-10.6C88.9,100.6,85.7,94.5,79.5,92z"/>
	<path d="M256.2,86.2c2,0.1,4,0.4,6.1,0.7c1.7,0.2,3.4,0.5,5.2,0.6c0.4,0,0.9,0.1,1.3,0.1c6.6,0,12.2-4.9,13.1-11.4
		c1-7.2-3.8-13.7-10.8-14.8c-4.3-0.7-8.7-1.2-12.9-1.7c-14.3-1.7-24.6,0.7-31.3,2c-14.3,2.9-27.8,8.5-40.1,16.6
		c-5.7,3.8-7.7,10.9-4.7,17c2.3,4.6,6.6,7.3,11.6,7.3c2.8,0,5.6-0.9,8.2-2.5c14.7-9.4,30.8-14.2,47.8-14.2
		C251.7,86,253.9,86,256.2,86.2z"/>
	<path d="M376,122.4c-24.6,0-44.7,20.1-44.7,44.8c0,11.9,4.6,23.2,13.1,31.7c8.4,8.5,19.7,13.1,31.6,13.1h0.1
		c12,0,23.3-4.7,31.8-13.3c8.5-8.5,13.1-19.7,13-31.6C420.7,142.5,400.6,122.5,376,122.4z M375.8,185.5c-4.8,0-9.3-1.9-12.7-5.4
		c-3.4-3.5-5.3-8.1-5.3-12.9c0-10.2,8.2-18.2,18.5-18.2h0c4.6,0,9.1,1.9,12.5,5.4c3.5,3.5,5.4,8.1,5.4,12.9
		C394.2,177.3,386,185.5,375.8,185.5z"/>
</g>
</svg>
