<?xml version="1.0" encoding="utf-8"?>
<svg version="1.1" xmlns="http://www.w3.org/2000/svg" fill="#cccccc" viewBox="0 0 500 500" xml:space="preserve">
<g>
	<path d="M181.2,190.7c15.1,57.8,29.8,114.1,44.6,170.4c0.5,0,1-0.1,1.6-0.1c0.5-5.9,1.2-11.8,1.4-17.6c0.8-22.8,2.3-45.7,2-68.5
		c-0.2-12.6,4.6-21.6,13-29.7c1.8-1.8,3.5-3.8,5.5-5.9c-5.1-5.5-9.9-10.8-14.9-16c-5.5-5.7-4.6-11.1,0-16.9
		c10.6-13.5,19.8-14.5,30.6-3c8.4,9.1,8.4,13.6-0.2,22.9c-4.1,4.4-8.4,8.7-13.4,13.8c16.6,11.2,18.2,28.1,18.2,46.5
		c0,24.8,2,49.6,5.1,74.8c14.8-56.3,29.6-112.6,45.1-171.3c20,6.4,38.8,11.5,56.8,18.7c5.5,2.2,10.5,9.3,12.9,15.3
		c20.3,50.9,40.1,102.1,59.8,153.2c5.3,13.7,1.5,26.7-10.2,35.5c-36,27.1-72.1,54.1-108.3,80.9c-13.9,10.3-32,7.5-41.7-5.6
		c-10.1-13.8-7.5-31.4,6.7-42.1c27.7-20.9,55.4-41.8,83.4-62.2c5.9-4.3,6.5-7.8,3.7-14.2c-7.1-16.7-13.3-33.8-19.9-50.8
		c-1-2.6-2.1-5.1-4.7-7.2c2.4,18.5,4.5,37,7.5,55.3c1.3,8.1-0.4,13-7.4,18c-26.5,19-52.4,39-78.7,58.3
		c-12.7,9.3-18.7,20.9-14.1,37.4c-10.6,0-20.7,0-31.4,0c5.3-17.7-2.8-29.4-16.4-39.3c-26.2-19-51.8-38.7-78-57.7c-5.5-4-7-8-6-14.5
		c2.9-19.1,5.2-38.2,6-57.9c-6,15.3-12.2,30.6-18,46c-2.6,6.9-7.8,14.9-6.2,20.9c1.5,5.5,10.4,9.2,16.1,13.5
		c23.8,17.9,47.7,35.6,71.5,53.5c14.8,11.2,17.9,28.8,7.7,42.6c-10.1,13.6-28.4,15.8-43.1,4.8c-35.2-26.2-70.4-52.5-105.5-78.9
		c-13.7-10.3-17.1-23-10.9-39c19.1-49.2,38.2-98.5,57.1-147.8c4.3-11.3,11.2-19.3,23.1-22.6C148,200.1,164.3,195.5,181.2,190.7z"/>
	<path d="M180.5,76.6c-0.1-37.6,15.4-62.1,42.3-72c28.6-10.4,61.6-2.7,80.2,18.9c10.6,12.4,15.4,27.2,15.7,43.1
		c0.6,32.2-9.2,60.9-32.7,83.8c-22.4,21.8-50.9,21.7-73.3-0.1C190.6,128.8,181.6,101.7,180.5,76.6z"/>
	<path d="M433.9,270.9c-9.5-20.7-21-40-16.1-64.3c3.5-17.4,4.1-35.6,4.3-53.5c0.5-36.3-25.6-81.9-80.6-87.4
		c-0.9-6.3-1.8-12.8-2.8-20.1c16.4-1.3,31.2,3,45.1,10.1c40,20.4,63.3,64,59.1,108.9C439.6,200.1,436.9,235.5,433.9,270.9z"/>
	<path d="M160.7,44.8c-1.2,8-2.1,14.4-3,20.8c-45.8,9.2-72.2,34.5-78.2,77.5c-1.9,13.8,0.4,28.2,1.3,42.3
		c0.8,13.2,2.4,26.4,3.6,39.7c0.1,1.7,0,3.5-0.5,5.1c-5,13.2-10.1,26.3-16.9,39.3c-1.1-13-2.3-25.9-3.4-38.9
		c-2.1-24.2-4.9-48.3-5.9-72.5c-2.2-53.5,33.9-99.9,85.6-111C148.3,45.7,153.8,45.6,160.7,44.8z"/>
</g>
</svg>
