<?xml version="1.0" encoding="utf-8"?>
<svg version="1.1" xmlns="http://www.w3.org/2000/svg" fill="#cccccc" viewBox="0 0 500 500" xml:space="preserve">
<g>
	<path class="st0" d="M448.1,499.9c-14.1,0-26.3-5.7-36.1-17c-10.1-11.6-20-23.7-29.6-35.4c-4.6-5.6-9.4-11.4-14.1-17.1
		c-21.1-25.4-38.2-46-53.9-64.7c-3.6-4.3-7.2-8.5-10.8-12.8c-4.3-5-8.7-10.3-12.9-15.4c-2.9-3.5-6.4-5.3-10.4-5.3
		c-2.5,0-5,0.7-7.5,2.3c-23.3,14-48.3,22.3-74.6,24.8c-6.4,0.6-12.8,0.9-19,0.9c-39.8,0-76.3-12.4-108.4-37
		c-35.2-26.9-57.7-62.4-66.7-105.6c-9-43-3-84.3,17.6-122.7c16.2-30.2,39.8-54.2,70-71.3c26.4-14.9,55.2-22.7,85.7-23.1
		c0.9,0,1.8,0,2.7,0c23.9-1.6,34.7,2.8,41.6,3.6c-1.8,1.6-9.9,10.7-11.5,12.5c-7.3,8.3,0,0-10.4,12.5C146.7,22.8,105.9,47.7,79,73
		c-27.6,25.9-43.1,58.1-46.1,95.7c-2.9,36.6,6.7,70.1,28.7,99.6c23.3,31.1,54.3,50.4,92.2,57.3c9.2,1.7,18.5,2.5,27.5,2.5
		c0,0,0,0,0,0c29.6,0,57.8-9.1,83.8-27.1c10.2-7.1,19.3-15.5,27.1-25.1c0.6,0.1,1.1,0.1,1.7,0.2c4,0.5,8.2,0.9,12.6,0.9h0.1
		c6.6,0,13.7-0.2,20.7-1.1c2-0.3,4.1-0.6,6.1-1c-2.9,6.9-1,11.9,6.3,18l19.1,15.9c24.9,20.8,49.9,41.6,74.8,62.4
		c5.5,4.6,11.1,9.2,16.5,13.6c10.7,8.8,21.8,17.8,32.3,27.1c16.1,14.3,21.1,31.9,14.9,52.5c-6.2,20.5-20.3,32.3-42.2,35.1
		C452.8,499.7,450.4,499.9,448.1,499.9z"/>
	<path class="st0" d="M384.4,230.1c-2.5-1.1-5.2-1.9-7.6-3.2c-3.2-1.9-6-4.2-9.1-6.2c-3.8-2.5-7.7-2.6-11.9-0.9
		c-4.4,1.9-8.7,3.8-13.1,5.4c-5.2,1.9-8.3,5.4-9.1,10.9c-0.5,3.4-1.1,6.7-1.8,10c-1.3,6.5-5.8,10.4-12.4,10.4
		c-7.1,0-14.3-0.2-21.4-0.4c-3.8-0.1-6.8-2.1-8-5.7c-1.5-4.5-2.6-9.1-3.3-13.8c-1-6-4.1-9.7-9.9-11.6c-4-1.3-7.9-3.1-11.8-4.9
		c-4.8-2.3-9.3-2.1-13.7,1.2c-2.6,2-5.4,3.8-8.1,5.6c-5.8,4-11.9,3.5-16.9-1.4c-4.3-4.3-8.7-8.6-12.9-13c-4.7-4.8-5.2-10.8-1.4-16.4
		c2-3,4.1-5.9,6.2-8.8c2.9-4.1,3-8.4,1-12.9c-1.9-4.4-3.9-8.9-5.6-13.4c-1.8-4.7-5.1-7.4-9.9-8.4c-3.7-0.8-7.4-1.2-11.1-2
		c-6-1.2-9.8-5.7-9.9-11.9c-0.1-6.6-0.1-13.2,0-19.8c0-5.5,3.6-10.1,8.9-11.5c3.8-0.9,7.6-1.5,11.4-2.1c5.4-0.9,8.9-3.7,10.8-8.9
		c1.6-4.4,3.4-8.6,5.4-12.8c2.1-4.5,1.9-8.8-0.9-12.9c-2.1-3-4.3-6-6.3-9c-3.7-5.5-3.2-11.5,1.4-16.2c4.5-4.6,9-9.1,13.6-13.5
		c4.6-4.4,11.1-4.7,16.2-1c2.9,2.1,5.8,4.2,8.8,6.2c3.9,2.7,7.9,3.1,12.4,1c4.4-2,8.9-3.9,13.4-5.5c5.1-1.8,7.9-5.3,8.8-10.5
		c0.6-3.2,1.1-6.5,1.7-9.7c1.1-6.6,5.4-10.6,12-10.9c6.6-0.2,13.2-0.2,19.8,0c6.5,0.2,10.7,4.2,12,10.6c0.7,3.4,1.2,6.9,1.8,10.3
		c0.9,5,3.7,8.3,8.5,10.1c4.5,1.7,9,3.6,13.4,5.6c4.5,2,8.6,1.7,12.6-1c2.9-2,5.9-4.1,8.8-6.1c5.7-3.9,11.8-3.4,16.6,1.4
		c4.5,4.4,9,8.8,13.4,13.3c4.1,4.2,4.6,10.9,1.3,15.8c-2.1,3.1-4.4,6.1-6.5,9.3c-2.7,4-3.1,8.1-1,12.6c2.1,4.5,3.9,9.1,5.7,13.7
		c1.7,4.3,4.6,7.1,9.1,8c3.8,0.8,7.6,1.4,11.4,2.1c6.2,1.1,10.2,5.8,10.3,12.2c0.1,6.5,0.1,13,0,19.5c-0.1,6.1-4,10.7-9.9,11.9
		c-3.7,0.7-7.4,1.3-11.1,2c-4.8,0.9-8.1,3.7-9.9,8.4c-1.7,4.5-3.6,9-5.6,13.4c-2,4.5-1.9,8.6,0.9,12.6c2.1,3,4.2,6,6.3,9
		c3.7,5.4,3.2,11.8-1.4,16.4c-4.4,4.4-8.7,8.8-13.2,13.1C390.7,228.6,388.4,229.5,384.4,230.1z M380.4,129
		c0.1-36.5-29.1-70.4-70.6-70.3c-40.5,0.1-69.9,32.7-70.2,69.5c-0.3,39.4,31.2,71.3,70.1,71.4C348.8,199.7,380.4,168.1,380.4,129z"
		/>
	</g>
</svg>
