<?xml version="1.0" encoding="utf-8"?>
<svg version="1.1" xmlns="http://www.w3.org/2000/svg" fill="#ffffff" viewBox="0 0 500 500" xml:space="preserve">
    <path d="M450.3,428.5c-49.8,0-99.5,0-149.3,0c-0.4,0-0.8-0.1-1.2-0.1c-6.6,0-13.3,0-19.9,0c-26.6,0-53.2,0-79.7-0.1c-49.4,0-98.8,0-148.3-0.1c-1.9,0-3.8-0.1-5.7-0.4c-11.4-1.6-21.3-6.3-29.6-14.3c-8.4-8.1-13.7-17.9-15.7-29.4c-0.3-1.9-0.6-3.9-0.8-5.9c0-23.6,0-47.2,0-70.8c0-0.4,0.1-0.9,0.1-1.3c0-54.1,0-108.2,0-162.3c0-0.6-0.1-1.2-0.1-1.8c0-6.8,0-13.6,0-20.4c0.1-1,0.3-2,0.4-3c1.4-11.9,6.3-22.2,14.6-30.8C25.7,77,38.7,71.5,54,71.5c73.2,0,146.4,0,219.6,0c57.7,0,115.4,0,173.1,0c4.3,0,8.5,0.3,12.7,1.4c19.4,5,32.3,17,38.8,35.9c1.2,3.5,1.8,7.2,1.8,11c-0.1,84.8,0,169.7,0,254.5c0,4.1-0.4,8.1-1.2,12.1c-4.3,20.4-21.2,37.1-41.7,41C454.8,427.9,452.5,428.1,450.3,428.5z M53.1,99.7c-0.1,0.1-0.2,0.3-0.4,0.4c0.3,0.2,0.8,0.3,1,0.5c8,8,16,16,24,24c51.6,51.5,103.1,102.9,154.7,154.4c4,4,8.1,8,12.1,12.1c2.2,2.2,4.9,3.2,8.1,2.6c2.2-0.4,3.8-1.7,5.4-3.2c51.5-51.5,102.9-102.9,154.4-154.4c11.8-11.8,23.7-23.7,35.5-35.5c0.3-0.3,0.5-0.6,0.9-0.9C316.7,99.7,184.9,99.7,53.1,99.7z M302.2,284c-0.2,0.3-0.4,0.6-0.7,0.9c-14.5,14.5-29.1,29.1-43.6,43.6c-4.4,4.4-9.5,4.4-13.8,0c-15.1-15.1-30.1-30.3-45.2-45.4c-0.3-0.3-0.5-0.5-0.6-0.6c-39.8,39.8-79.4,79.5-118.9,119c113.3,0,226.8,0,340.3,0C380.6,362.5,341.5,323.4,302.2,284z M321.5,265.3c0.2,0.2,0.6,0.4,0.8,0.7c22.7,22.7,45.4,45.4,68,68.2c21.7,21.8,43.5,43.6,65.2,65.4c0.6,0.6,1.1,0.7,1.9,0.4c6.6-2.2,11.1-6.5,13.5-13c1.7-4.7,2.1-9.5,2.1-14.4c0-85.9,0-171.9,0-257.8c0-0.4,0-0.7,0-1.1C422.5,164.2,372,214.7,321.5,265.3z M29.9,114.7c0,0.5,0,0.9,0,1.2c0,87.4,0,174.9,0,262.3c0,2.3,0.2,4.7,0.6,6.9c1.1,6.7,4.5,11.8,11.1,14.5c0.8,0.3,1.3,0.3,2-0.4c44.9-44.9,89.8-89.8,134.8-134.8c0.3-0.3,0.5-0.5,0.6-0.7C129.2,214.1,79.6,164.5,29.9,114.7z"/>
</svg>
