<?xml version="1.0" encoding="utf-8"?>
<svg version="1.1" xmlns="http://www.w3.org/2000/svg" fill="#ffffff" viewBox="0 0 500 500" xml:space="preserve">
    <path d="M253,406.2c72.3,0,46.5-45.8,52.1-59c-0.1-9.8-0.2-19.3,0.2-25c4.6,1.3,15.4,6.8,37.7,28.5c34.5,34.8,43.3,55.5,71.1,55.5h51.3c16.2,0,24.7-6.7,28.9-12.4c4.1-5.5,8.1-15,3.7-30C486.7,328,420,266,415.8,259.4c0.6-1.2,1.6-2.8,2.1-3.6h0c13.2-17.4,63.4-92.7,70.8-122.8c0,0,0-0.1,0-0.2c4-13.7,0.3-22.7-3.5-27.7c-5.7-7.5-14.8-11.4-27.1-11.4H407c-17.2,0-30.2,8.6-36.8,24.4c-11,28-42,85.6-65.2,106c-0.7-28.9-0.2-51,0.1-67.4c0.8-32,3.2-63.1-30-63.1h-80.6c-20.8,0-40.7,22.7-19.1,49.7c18.8,23.6,6.8,36.8,10.8,102.3c-15.8-17-44-62.8-63.9-121.4c-5.6-15.9-14-30.5-37.9-30.5H33.2C12.4,93.8,0,105.1,0,124.1C0,166.7,94.4,406.2,253,406.2L253,406.2z M84.5,125c4.5,0,5,0,8.3,9.5c20.4,60.1,66.1,148.9,99.6,148.9c25.1,0,25.1-25.7,25.1-35.4l0-77.1c-1.4-25.5-10.7-38.2-16.8-45.9l73.1,0.1c0,0.4-0.4,85.3,0.2,105.9c0,29.2,23.2,46,59.4,9.3c38.2-43.1,64.7-107.6,65.7-110.3c1.6-3.7,2.9-5,7.8-5h51.3h0.2c0,0.1,0,0.1,0,0.2c-4.7,21.9-51,91.6-66.4,113.2c-0.2,0.3-0.5,0.7-0.7,1c-6.8,11.1-12.4,23.4,0.9,40.7h0c1.2,1.5,4.4,4.9,8.9,9.6c14.2,14.7,63.1,65,67.5,85c-2.9,0.5-6,0.1-54.4,0.2c-10.3,0-18.4-15.4-49.1-46.5c-27.7-26.9-45.6-37.9-62-37.9c-31.7,0-29.4,25.8-29.1,56.9c0.1,33.8-0.1,23.1,0.1,25.2c-1.9,0.7-7.2,2.2-21,2.2C120.8,375,34.7,165.2,31.4,125.1C32.6,125,48.4,125,84.5,125L84.5,125z"/>
</svg>
