<?xml version="1.0" encoding="utf-8"?>
<svg version="1.1" fill="#47B900" xmlns="http://www.w3.org/2000/svg" width="60px" height="60px" viewBox="0 0 500 500" xml:space="preserve">
    <path d="M327.1,134.5H87.6c-4.1,0-7.4,3.3-7.4,7.4c0,4.1,3.3,7.4,7.4,7.4h239.5c4.1,0,7.4-3.3,7.4-7.4C334.5,137.8,331.2,134.5,327.1,134.5L327.1,134.5z"/>
    <path d="M87.6,98.2h119.8c4.1,0,7.4-3.3,7.4-7.4c0-4.1-3.3-7.4-7.4-7.4H87.6c-4.1,0-7.4,3.3-7.4,7.4C80.2,94.9,83.5,98.2,87.6,98.2z"/>
    <path d="M327.1,179.8H87.6c-4.1,0-7.4,3.3-7.4,7.4c0,4.1,3.3,7.4,7.4,7.4h239.5c4.1,0,7.4-3.3,7.4-7.4C334.5,183.1,331.2,179.8,327.1,179.8L327.1,179.8z"/>
    <path d="M142.2,449H65.5c-12.6,0-22.8-10.2-22.8-22.8V37.4c0-12.6,10.2-22.8,22.8-22.8h220.8c0.7,0,1.4,0.1,2.1,0.2v45.9c0,20.7,16.8,37.5,37.5,37.5h45.9c0.1,0.7,0.2,1.4,0.2,2.1v125.3c0,4.1,3.3,7.4,7.4,7.4c4.1,0,7.4-3.3,7.4-7.4V100.3c0-8.1-3.1-15.7-8.9-21.4L307.7,8.8c-5.7-5.7-13.3-8.9-21.4-8.9H65.5C44.8-0.1,28,16.8,28,37.4v388.7c0,20.7,16.8,37.5,37.5,37.5h76.7c4.1,0,7.4-3.3,7.4-7.4S146.2,449,142.2,449L142.2,449z M361.6,83.5H326c-12.6,0-22.8-10.2-22.8-22.8V25L361.6,83.5z"/>
    <path d="M469.8,360.1l-62.3-105.2c-4.5-7.7-14.4-10.2-22.1-5.7l-15.2,9c-11.8,7-16.7,21.1-12.7,33.6
        c-5.1,1.9-10.7,1.8-15.9-0.2c-12-3.8-21.1-11.3-36.1-7.5c-25.5,6.5-24.8,6.2-27.1,7c-14.9-8.5-23.9-11-39.8-4.9l-14.1,5.5
        c-6.5,2.5-13.8,1.9-19.8-1.7l-3.9-2.3c1.9-11.3-3.1-23.2-13.7-29.5c0,0,0,0,0,0l-15.2-9c-7.7-4.5-17.6-2-22.1,5.7L87.5,360.1
        c-4.5,7.7-2,17.6,5.7,22.1l15.2,9c4.6,2.7,9.6,4,14.6,4c5.6,0,11-1.6,15.7-4.6l3.2,1.9l-6.7,9.3c-8,11.1-5.4,26.5,5.7,34.4
        c5.1,3.7,11.6,5.4,18.2,4.3c1.1,6.2,4.4,12,9.9,15.9c5.1,3.7,11.5,5.4,18.2,4.3c1.1,6.2,4.4,11.9,9.9,15.9
        c7.4,5.3,16.5,5.9,24.1,2.6c1.7,4.3,4.6,8.2,8.6,11.1c10.6,7.6,25.1,5.6,33.3-4.2l17.7,10.5c11.7,6.9,26.9,3.1,33.8-8.7
        c1.8-3,2.9-6.3,3.3-9.6l0,0c11.7,6.9,26.9,3.1,33.8-8.7c2-3.4,3.1-7.1,3.4-10.8c10.3,2.6,21.6-1.7,27.3-11.4
        c1.9-3.2,3-6.6,3.3-10c11.1,4.3,24,0.1,30.2-10.4c3.4-5.7,4.3-12.3,2.7-18.7c-0.9-3.7-2.7-7-5-9.8l9.8-5.7
        c8.3,3.4,17.7,2.9,25.6-1.8l15.2-9C471.8,377.7,474.3,367.8,469.8,360.1L469.8,360.1z M115.8,378.6l-15.2-9
        c-0.7-0.4-0.9-1.3-0.5-1.9l62.3-105.2c0.4-0.7,1.3-0.9,1.9-0.5l15.2,9c6.7,4,8.8,12.6,4.9,19.2L135,373.6
        C131.1,380.3,122.4,382.5,115.8,378.6L115.8,378.6z M149.3,424.2c-4.5-3.2-5.5-9.4-2.3-13.9l9.8-13.7c3.1-4.4,9.3-5.5,13.9-2.3
        c4.5,3.2,5.5,9.4,2.3,13.9l-9.8,13.7C160,426.4,153.8,427.4,149.3,424.2z M177.5,444.4c-4.5-3.2-5.5-9.4-2.3-13.9l9.8-13.7
        c0,0,0,0,0,0c0,0,0,0,0,0l10.8-15.1c1.6-2.2,3.8-3.6,6.5-4c0.5-0.1,1.1-0.1,1.6-0.1c2.1,0,4.1,0.6,5.8,1.9c2.2,1.6,3.6,3.8,4,6.5
        c0.4,2.6-0.2,5.3-1.7,7.4l-20.6,28.7C188.1,446.6,181.9,447.6,177.5,444.4z M205.6,464.6c-4.5-3.2-5.5-9.4-2.3-13.9c0,0,0,0,0,0
        l20.6-28.7c3.2-4.5,9.4-5.5,13.9-2.3c4.5,3.2,5.5,9.4,2.3,13.9l-9.2,12.8c0,0,0,0,0,0l-11.5,16
        C216.3,466.8,210,467.8,205.6,464.6L205.6,464.6z M238.3,478.4c-4.5-3.2-5.5-9.4-2.3-13.9l6.9-9.6c3.2-4.5,9.4-5.5,13.9-2.3
        c4.5,3.2,5.5,9.4,2.3,13.9l-6.9,9.6C249,480.6,242.8,481.6,238.3,478.4z M403.2,419.7c-2.8,4.7-8.9,6.3-13.6,3.5
        c-8-4.7-59.6-35.3-65.1-38.6c-3.5-2.1-8-0.9-10.1,2.6c-2.1,3.5-0.9,8,2.6,10.1l49.2,29.2l0,0c4.7,2.8,6.3,8.9,3.5,13.6
        c-2.8,4.7-8.9,6.3-13.6,3.5c-18.2-10.8-33-19.5-49.3-29.2c-3.5-2.1-8-0.9-10.1,2.6c-2.1,3.5-0.9,8,2.6,10.1l36.3,21.5l0,0
        c4.7,2.8,6.3,8.9,3.5,13.6c-2.8,4.7-8.9,6.3-13.6,3.5l-19.5-11.5c0,0,0,0,0,0c0,0,0,0,0,0l-14.2-8.4c-3.5-2.1-8-0.9-10.1,2.6
        c-2.1,3.5-0.9,8,2.6,10.1l14.2,8.4c0,0,0,0,0,0c4.7,2.8,6.3,8.9,3.5,13.6c-2.8,4.7-8.9,6.3-13.6,3.5l-16.6-9.8
        c7.1-11,4.4-25.7-6.3-33.4c-3.2-2.3-6.7-3.7-10.2-4.3c3.8-10.2,0.5-22.1-8.7-28.7c-5.5-3.9-12-5.3-18.2-4.3
        c-1.1-6.4-4.6-12.1-9.9-15.9c-10-7.2-23.5-5.8-31.9,2.7c-1.7-3-4.1-5.7-7-7.8c-8.3-6-19.1-6-27.3-1l-3.4-2l46.3-78.1l2.2,1.3
        c9.7,5.8,21.6,7,32.6,2.7l14.1-5.5c8.1-3.1,12.6-3.3,20.6,0.4c-5.2,5.9-8.3,13.6-8.3,21.9v32.6c0,8.7,7,15.7,15.7,15.7h0
        c8.7,0,16.9-3.4,23-9.5c3.6-3.6,6.2-7.8,7.8-12.5c9.5,5.6,88,52.1,97.1,57.5c2.3,1.4,3.9,3.5,4.6,6.1
        C405,414.8,404.6,417.4,403.2,419.7L403.2,419.7z M456.6,369.6l-15.2,9c-6.7,3.9-15.3,1.7-19.2-4.9L399,334.5
        c-2.1-3.5-6.6-4.7-10.1-2.6c-3.5,2.1-4.7,6.6-2.6,10.1l23.2,39.1c0.4,0.7,0.9,1.4,1.4,2.1l-6.4,3.8c-1.3,0.8-2.6,1.6-3.8,2.5
        l-100-59.2c-4.9-2.9-11.1,0.6-11.1,6.3c-0.1,0.4,0.8,8-5.2,14c-3.4,3.4-7.8,5.2-12.6,5.2c0,0,0,0,0,0c-0.5,0-1-0.5-1-1v-32.6
        c0-8.5,5.9-15.7,13.8-17.7l24.4-6.2c8.9-2.2,13.9,2.5,27.2,7c9.2,3.6,19.2,3.3,28.1-0.5l4.4,7.5c2.1,3.5,6.6,4.7,10.1,2.6
        c3.5-2.1,4.7-6.6,2.6-10.1l-8.7-14.8c-4-6.7-1.8-15.3,4.9-19.2l15.2-9c0.7-0.4,1.5-0.2,1.9,0.5l62.3,105.2
        C457.5,368.3,457.3,369.2,456.6,369.6L456.6,369.6z"/>
</svg>
