<?xml version="1.0" encoding="utf-8"?>
<svg version="1.1" xmlns="http://www.w3.org/2000/svg" fill="#cccccc" width="90px" height="90px" viewBox="0 0 500 500" xml:space="preserve">
	<path d="M322.2,324.5c-2.9-6.1-5.8-11.4-13.9-9.7c-0.6,0.1-1.3-0.1-1.9-0.2c-39.2-5.9-78.5-11.7-117.7-17.7c-7.4-1.1-14.7-3.1-22-4.9c-2.1-0.5-3.9-2-6.9-3.7c7.1,13.4,16.6,22.4,28.6,28.9c16.8,9.1,35.1,12.2,54,12c7.6-0.1,13.7,2.7,19.3,7.3c7.8,6.4,11.8,15.1,13.7,24.8c3.4,17.6,1.1,35-3.5,52c-3.9,14.4-8.9,28.5-14,42.5c-1.6,4.4-2.5,8.7-2.6,12.9c-0.2,1.3-0.3,2.6-0.3,3.9c0,14.3,11.8,25.9,26.4,25.9c8.1,0,15.3-3.6,20.2-9.2c4.5-4.1,7.6-9.4,10-15.6c9.8-25.8,18.1-51.9,20.7-79.5C334.6,370.2,332.7,346.7,322.2,324.5z"/>
	<path d="M46.3,210.9c10.4-0.4,20.9,0.1,31.3-0.5c16.8-0.9,33.8-1.9,49.9-7.2c19.3-6.4,36-17.6,51.7-30.2c2.9-2.4,5.8-4.8,9.6-8c0,22.2,0,43.3,0,64.8c14.5,2.2,28.1,4.2,42.1,6.3c3.3-24.2,6.5-47.8,9.7-71c6.5,0,12.5,0,18.8,0c0.1,0.5,0.3,1.4,0.4,2.4c2.6,19.2,5.2,38.5,7.8,57.7c0.7,5.2-0.2,12,2.8,15.3c2.8,3.2,9.6,3,14.7,3.8c8.5,1.4,17,2.5,26.4,3.8c0-27.7,0-54.9,0-82.7c6.5,5.1,11.9,9.9,17.8,14.1c16.9,11.9,34.1,23,55,26.8c24.5,4.5,49.2,5.1,73.9,4.5c1.3,0,2.5-0.4,3.8-0.8c8-2.6,13.2-10.7,12-18.7c-1.4-9.5-8.6-15.8-18.2-16.1c-15.1-0.4-30.2-0.8-45.3-1.5c-17.5-0.8-34.1-4.9-48.4-15.4c-10.6-7.7-21.2-15.6-31.1-24.3c-12.6-11.1-26.8-16.2-43.6-15.9c-24.7,0.5-49.5,0.5-74.3,0c-16.8-0.4-31.2,4.4-43.6,15.7c-6.2,5.6-12.4,11.3-19.1,16.2c-15.2,11.2-31.2,21.3-50.8,22.5c-17.6,1.1-35.3,2.1-52.9,2.5c-12.5,0.3-20.4,6.9-20.6,18C25.9,201.4,32.9,211.5,46.3,210.9zM239,146.7c0.8-3.2,1.7-6.5,2.7-10c5.1,0,10.1-0.1,15,0.1c1,0.1,2.4,1.4,2.8,2.5c1.1,3.2,1.3,6.7,2.6,9.7c2,4.9-0.3,7.4-4.5,8.5c-3.3,0.9-7,1.6-10.3,1.2C238.5,157.6,236.9,154.9,239,146.7z"/>
	<path d="M178.9,290.3c29.5,4.4,59.1,8.9,88.6,13.3c14.9,2.2,29.9,4.4,42.8,6.3c17,0.4,29.1-10.5,30.6-25.6c1.4-14.3-8.5-27.6-22.8-30c-12.6-2.1-25.3-4-38-5.9c-27.4-4.1-54.8-8.3-82.3-12.3c-6.5-0.9-13.2-2.5-19.5-1.8c-14.9,1.6-25.3,13.9-25.2,28.1C153.2,276.8,163.8,288.1,178.9,290.3z"/>
	<path d="M137.6,333.2c21.5,0,43.1,0,64.6,0c1.6,0,3.2,0,4.8,0c-1.2-1.1-2.4-1.5-3.6-1.9c-30.3-9.7-51-28.5-56.9-60.9c-3.7-20.4,7.8-38.1,27.5-42.7c2.4-0.6,5-0.7,7.4-1c0-2.7,0-5,0-7.5c-0.9-0.2-1.5-0.4-2.1-0.4c-22.7,0-45.3-0.1-68,0.1c-3.3,0-6.7,1.3-10.4,2c0.8,1.5,1.1,2.1,1.5,2.6c9.3,12.2,13.3,26.2,13.3,41.4c0.1,45.5,0,91,0,136.4c0,2,0,4.1,0,6.7c2.2,0,3.9,0,5.7,0c46,0,91.9,0,137.9,0c7.2,0,7.2,0,7.4-7.9c-1.9,0-3.8,0-5.7,0c-41.1,0-82.3,0-123.4,0c-8.6,0-11.9-3.4-12-12c0-14.3,0-28.6,0-42.9C125.7,336.6,129,333.2,137.6,333.2z"/>
	<path d="M399.4,219.8c-27.4-2.4-53.9-0.4-80.6-1.2c0,10.7,0,20.6,0,30.4c15.5,4.2,25.4,13.6,27,29.7c1.6,16.4-6.7,27.4-21,34.4c2.6,5.6,5.3,10.9,7.3,16.4c1.1,3.1,2.8,3.7,5.7,3.7c8.5-0.2,17-0.1,25.6,0c7.7,0,11.2,3.5,11.2,11.2c0,14.3,0,28.6,0,42.9c0,9.6-3.1,12.7-12.7,12.7c-7.5,0-15,0-22.9,0c-0.3,2.8-0.6,5.1-0.9,7.6c15.5,0,30.7,0,46.3,0c0-2,0-3.8,0-5.5c0-45.5,0-91,0-136.4c0-15.3,3.8-29.5,13.1-42C398.2,223,398.4,222.1,399.4,219.8z"/>
	<path d="M389.6,480.7c9.1,0,17.9,0,27.5,0c0-3.7,0-7.3,0-11.1c-9.2,0-18.3,0-27.5,0C389.6,473.4,389.6,477,389.6,480.7z"/>
	<path d="M82.9,473.9c0,2.1,0,4.1,0,6.8c9.6,0,18.7,0,27.8,0c0-3.8,0-7.4,0-10.9c-9.4,0-18.4,0-27.6,0C83,471.3,82.9,472.6,82.9,473.9z"/>
	<path d="M264.1,415.4c-52.5,0-104,0-155.9,0c0-2.4,0-4.1,0-5.8c0-49,0.2-98.1-0.1-147.1c-0.1-10.7-2.6-20.6-7.9-29.3c-0.2-0.3-0.4-0.6-0.6-1c-0.1-0.2-0.2-0.3-0.3-0.5c-3.1-4.9-7-9.2-11.4-12.8c-3.8,0.3-7.6,0.5-11.3,0.7c-10.4,0.5-20.9,0.1-31.3,0.5c-7.6,0.3-13.1-2.8-16.4-7.1C11.7,222,0,240,0,260.7c0,29.7,24.1,53.9,53.9,53.9c2.6,0,5.1-0.2,7.5-0.5c0,1.8,0,3.3,0,4.8c0,39.2,0,78.4,0,117.7c0,16.7,9.3,26,25.9,26c51.6,0,103.2,0,154.8,0c1.3,0,2.7,0.3,3.8-0.1c1.1-0.4,2.6-1.3,3-2.3c3.2-8.4,6.3-16.8,9.2-25.3C260.2,428.7,262,422.5,264.1,415.4z"/>
	<path d="M500,260.7c0-20.9-11.9-39-29.2-47.9c-2.1,2.8-5.1,5.1-8.7,6.3c-1.2,0.4-2.5,0.7-3.8,0.8c-15.4,0.4-30.8,0.3-46.2-0.9c-12.1,9.9-19.9,24.9-19.9,41.8c0,0.2,0,0.4,0,0.5c0,0.2,0,0.4,0,0.7c-0.4,48.9-0.2,97.7-0.2,146.6c0,2.2,0,4.4,0,6.9c-2.3,0.1-4,0.2-5.7,0.3c-15.1,0-30.2,0.1-45.3-0.1c-3.4,0-4.6,1.1-5.4,4.4c-3.1,12.3-6.7,24.4-10.1,36.6c-0.5,1.8-1.1,3.6-1.6,5.3c0.6,0.3,0.8,0.5,0.9,0.5c31.2,0,62.3,0.2,93.5,0c5.1,0,11-1.8,13-6.9c3.6-9,7.8-17.8,7.7-28c-0.3-36.2-0.1-72.3-0.1-108.5c0-1.5,0-3,0-4.7c2.3,0.3,4.7,0.5,7.1,0.5C475.9,314.5,500,290.4,500,260.7z"/>
	<circle cx="250" cy="54.4" r="52.8"/>
</svg>
