<?xml version="1.0" encoding="utf-8"?>
<svg version="1.1" xmlns="http://www.w3.org/2000/svg" fill="#cccccc" width="90px" height="90px" viewBox="0 0 500 500" xml:space="preserve">
    <g>
        <path d="M207.4,270c8.3,26.1,16.5,52.1,24.8,78.2c0.2,0,0.3,0,0.5,0c0.3-0.6,0.6-1.3,0.9-1.9c2.9-8.1,5.8-16.2,8.7-24.3
            c0.2-0.6,0-1.4-0.3-2c-2.7-4.4-5.6-8.8-7.3-13.7c-0.9-2.7-1.6-5.4-1.4-8.3c0.1-1.9,0.8-3.5,2-4.9c2.2-2.6,5.1-4.1,8.4-4.7
            c4-0.7,7.9-0.6,11.9,0.3c7.6,1.7,10.9,7.1,8.9,14.6c-1.5,5.8-4.4,11.1-7.8,16.1c-0.8,1.1-1,2-0.5,3.3c2.9,7.9,5.7,15.9,8.5,23.8
            c0.2,0.5,0.4,1.1,1,1.7c0.4-1,0.9-2.1,1.2-3.1c2.7-8.1,5.3-16.3,7.9-24.4c5.2-16.3,10.3-32.7,15.5-49c0.1-0.4,0.3-0.8,0.5-1.4
            c0.6,0.4,1.2,0.7,1.8,1c11.5,7.1,23.4,13.4,36.1,18c4.8,1.7,9.5,3.4,14.4,4.7c11.4,3,17.8,10.5,20.8,21.5c1.1,4.1,1.8,8.3,1.7,12.5
            c-0.1,8.3-0.3,16.5-0.6,24.8c-0.1,1.8-0.5,3.7-0.7,5.5c-0.2,2.1-1.4,3.7-3.2,4.6c-4.5,2.3-9,4.7-13.6,6.8
            c-18.4,8.2-37.8,13.1-57.6,16.6c-16,2.8-32.1,2.5-48.2,2.5c-6.9,0-13.7-0.1-20.6-0.8c-12.8-1.2-25.3-3.7-37.7-6.9
            c-16.8-4.3-32.8-10.5-48-18.9c-0.6-0.3-1-1.1-1.2-1.8c-2.1-8.7-1.9-17.5-1.8-26.3c0.1-5.5,0.5-11,1.2-16.4c0.6-4.7,2.8-9,5.4-13
            c2.7-4.2,6.5-7.1,11.2-8.8c5.2-1.9,10.6-3.6,15.9-5.4c13.5-4.6,26-11.1,38.2-18.5c0.9-0.5,1.8-1.1,2.6-1.6
            C206.9,270.1,207,270.1,207.4,270z"/>
        <path d="M309.3,168c-0.1,6.3-0.7,14.1-2.4,21.9c-0.2,1,0,1.7,0.8,2.2c1.7,1.1,2.4,2.7,2.5,4.8c0.4,10.1-1.8,19.6-6.6,28.5
            c-0.7,1.2-1.5,2.4-2.4,3.5c-1,1.2-2.3,1.9-4,1.5c-1.5-0.4-1.6,0.7-1.8,1.7c-0.8,4.9-2.2,9.6-4.2,14.1c-3.4,7.8-7.8,14.9-14.5,20.2
            c-11.4,8.9-24.4,11.9-38.6,8.8c-18-4-29.4-15.4-35.5-32.4c-1.5-4.1-2.4-8.3-3.6-12.5c-0.4-1.4-0.6-2.5-2.2-3.3
            c-1.3-0.6-2.3-2.2-3.1-3.6c-3.1-5.4-5.3-11.2-6.3-17.3c-0.7-4.1-0.7-8.4-0.7-12.6c0-2.8,2.2-4.7,5-4.9c1.2-0.1,1.5-0.5,1.2-1.7
            c-5.8-21.3,0.1-39.5,15.3-54.9c7.4-7.5,15.8-13.6,25.9-16.7c19.7-6.1,37.6-2.4,52.8,11.8c3.2,3,6.1,6,10.3,8
            c5.3,2.6,8,7.8,9.9,13.2C309,154.2,309.4,160.3,309.3,168z"/>
    </g>
    <g>
        <path d="M126.3,331.8c0.1-6,0.5-12,1.3-18c0.7-5.2,3.1-9.8,5.9-14.2c2.9-4.6,7.2-7.8,12.2-9.6c5.7-2.1,11.6-3.9,17.4-5.9
            c12.6-4.3,24.4-10.1,35.9-16.8c-3-7.3-8.3-12.3-16.6-14.5c-4.2-1.1-8.4-2.6-12.5-4.1c-11-4-21.4-9.4-31.3-15.6
            c-0.5-0.3-1-0.5-1.5-0.9c-0.2,0.5-0.3,0.9-0.4,1.3c-4.5,14.1-8.9,28.3-13.4,42.4c-2.2,7.1-4.6,14.1-6.9,21.2
            c-0.3,0.9-0.7,1.8-1.1,2.7c-0.5-0.5-0.7-1-0.9-1.5c-2.4-6.9-4.9-13.7-7.4-20.6c-0.4-1.1-0.3-1.9,0.4-2.9c3-4.3,5.5-8.8,6.8-13.9
            c1.7-6.5-1.2-11.1-7.7-12.6c-3.4-0.8-6.9-0.9-10.3-0.2c-2.9,0.5-5.3,1.8-7.2,4c-1.1,1.2-1.6,2.6-1.7,4.2c-0.2,2.5,0.4,4.8,1.2,7.2
            c1.5,4.3,4,8.1,6.4,11.9c0.3,0.5,0.4,1.2,0.2,1.7c-2.5,7-5,14-7.5,21.1c-0.2,0.6-0.5,1.1-0.7,1.7c-0.1,0-0.3,0-0.4,0
            C79.3,277.6,72.1,255,65,232.4c-0.3,0.1-0.4,0.1-0.5,0.1c-0.8,0.4-1.5,0.9-2.3,1.4c-10.5,6.4-21.4,12-33,16
            c-4.6,1.6-9.2,3-13.8,4.6c-4,1.5-7.3,3.9-9.7,7.6c-2.2,3.5-4.1,7.2-4.7,11.3c-0.6,4.7-0.9,9.5-1,14.2c-0.1,7.6-0.3,15.3,1.5,22.8
            c0.1,0.6,0.6,1.3,1,1.5c13.1,7.3,27,12.6,41.5,16.3c10.7,2.8,21.6,4.9,32.7,6c5.9,0.6,11.9,0.7,17.8,0.7c10.6,0,21.1,0.2,31.7-0.8
            C126.3,333.4,126.3,332.6,126.3,331.8z"/>
        <path d="M153.2,144.2c-0.1,5.4-0.6,12.2-2.1,18.9c-0.2,0.9,0,1.4,0.7,1.9c1.5,1,2.1,2.4,2.1,4.2c0.4,8.8-1.5,17-5.7,24.7
            c-0.6,1.1-1.3,2.1-2,3c-0.9,1.1-2,1.6-3.5,1.3c-1.3-0.3-1.4,0.6-1.5,1.4c-0.7,4.2-1.9,8.3-3.6,12.2c-2.9,6.7-6.7,12.9-12.6,17.5
            c-9.9,7.7-21.1,10.3-33.4,7.6c-15.6-3.4-25.4-13.3-30.7-28c-1.3-3.5-2.1-7.2-3.1-10.8c-0.3-1.2-0.6-2.2-1.9-2.8
            c-1.1-0.6-2-1.9-2.7-3.1c-2.7-4.7-4.6-9.7-5.5-15c-0.6-3.6-0.6-7.3-0.6-10.9c0-2.5,1.9-4.1,4.3-4.2c1.1-0.1,1.3-0.4,1-1.4
            c-5-18.5,0.1-34.2,13.2-47.5c6.4-6.5,13.7-11.8,22.4-14.5c17.1-5.3,32.5-2.1,45.7,10.2c2.8,2.6,5.3,5.2,8.9,6.9
            c4.6,2.2,6.9,6.7,8.6,11.5C153,132.2,153.3,137.5,153.2,144.2z"/>
    </g>
    <g>
        <path d="M451.3,144.8c-0.1,5.4-0.6,12.2-2.1,18.9c-0.2,0.9,0,1.4,0.7,1.9c1.5,1,2.1,2.4,2.1,4.2c0.4,8.8-1.5,17-5.7,24.7
            c-0.6,1.1-1.3,2.1-2,3c-0.9,1.1-2,1.6-3.5,1.3c-1.3-0.3-1.4,0.6-1.5,1.4c-0.7,4.2-1.9,8.3-3.6,12.2c-2.9,6.7-6.7,12.9-12.6,17.5
            c-9.9,7.7-21.1,10.3-33.4,7.6c-15.6-3.4-25.4-13.3-30.7-28c-1.3-3.5-2.1-7.2-3.1-10.8c-0.3-1.2-0.6-2.2-1.9-2.8
            c-1.1-0.6-2-1.9-2.7-3.1c-2.7-4.7-4.6-9.7-5.5-15c-0.6-3.6-0.6-7.3-0.6-10.9c0-2.5,1.9-4.1,4.3-4.2c1.1-0.1,1.3-0.4,1-1.4
            c-5-18.5,0.1-34.2,13.2-47.5c6.4-6.5,13.7-11.8,22.4-14.5c17.1-5.3,32.5-2.1,45.7,10.2c2.8,2.6,5.3,5.2,8.9,6.9
            c4.6,2.2,6.9,6.7,8.6,11.5C451,132.8,451.4,138.1,451.3,144.8z"/>
        <path d="M498.5,272.1c-2.6-9.5-8.2-16-18-18.6c-4.2-1.1-8.4-2.6-12.5-4.1c-11-4-21.4-9.4-31.3-15.6c-0.5-0.3-1-0.5-1.5-0.9
            c-0.2,0.5-0.3,0.9-0.4,1.3c-4.5,14.1-8.9,28.3-13.4,42.4c-2.2,7.1-4.6,14.1-6.9,21.2c-0.3,0.9-0.7,1.8-1.1,2.7
            c-0.5-0.5-0.7-1-0.9-1.5c-2.4-6.9-4.9-13.7-7.4-20.6c-0.4-1.1-0.3-1.9,0.4-2.9c3-4.3,5.5-8.8,6.8-13.9c1.7-6.5-1.2-11.1-7.7-12.6
            c-3.4-0.8-6.9-0.9-10.3-0.2c-2.9,0.5-5.3,1.8-7.2,4c-1.1,1.2-1.6,2.6-1.7,4.2c-0.2,2.5,0.4,4.8,1.2,7.2c1.5,4.3,4,8.1,6.4,11.9
            c0.3,0.5,0.4,1.2,0.2,1.7c-2.5,7-5,14-7.5,21.1c-0.2,0.6-0.5,1.1-0.7,1.7c-0.1,0-0.3,0-0.4,0c-7.1-22.5-14.3-45.1-21.4-67.7
            c-0.3,0.1-0.4,0.1-0.5,0.1c-0.8,0.4-1.5,0.9-2.3,1.4c-10.5,6.4-21.4,12-33,16c-4.6,1.6-9.2,3-13.8,4.6c-4,1.5-7.3,3.9-9.7,7.6
            c-1.2,1.8-2.2,3.7-3.1,5.7c10.1,5.9,20.5,11.1,31.6,15.1c4.9,1.8,9.9,3.6,15,4.9c11.8,3.1,18.5,10.9,21.7,22.3
            c1.2,4.3,1.9,8.6,1.8,13c-0.1,3.5-0.1,7-0.2,10.6c1.4,0.2,2.9,0.3,4.3,0.5c5.9,0.6,11.9,0.7,17.8,0.7c13.9,0.1,27.9,0.3,41.7-2.1
            c17.2-3,33.9-7.3,49.9-14.4c4-1.8,7.9-3.9,11.7-5.9c1.6-0.8,2.6-2.1,2.8-4c0.2-1.6,0.6-3.2,0.6-4.8c0.2-7.2,0.4-14.3,0.5-21.5
            C500.1,279.2,499.5,275.6,498.5,272.1z"/>
    </g>
</svg>
