<?xml version="1.0" encoding="utf-8"?>
<svg version="1.1" xmlns="http://www.w3.org/2000/svg" fill="#ffffff" viewBox="0 0 500 500" xml:space="preserve">
    <g>
        <path d="M234.6,500c-35.7,0-65.3-0.1-93-0.2c-32-0.1-61.2-10.5-86.8-30.8C27.6,447.5,10.2,419.2,2.9,385c-1.9-8.8-2.8-17.9-2.8-27.1c0-20.7,0-41.3-0.1-62C0,245.6-0.1,193.5,0.3,142.3C0.6,98.4,18.3,61.4,53,32.4C71.1,17.2,92.7,7.1,117.2,2.4c8.4-1.6,17.2-2.4,26.7-2.4l10.8,0c18.9,0,37.7,0,56.6,0c18.9,0,37.7,0,56.6,0c35,0,63.5,0,89.5,0.2c37.7,0.2,70.9,13.7,98.6,40.3c22.5,21.6,36.5,48.1,41.7,78.9c1.3,7.6,2,15.9,2,24.8c0.2,25.8,0.1,52.1,0.1,77.5c0,8.1,0,16.1,0,24.2l0,4.3c0,11.1,0,22.2,0.1,33.3c0.1,24.6,0.2,50.1-0.2,75.2c-0.6,40.8-16.5,75.9-47.1,104.1c-16.9,15.6-37.2,26.6-60.2,32.7c-11.5,3-22.9,4.5-34.1,4.5c-15.9,0-31.8,0-47.6,0C285.4,500,260,500,234.6,500z M144.7,30.6c-11.1,0-21.2,1.3-30.9,3.9C65,47.5,30.8,91.8,30.7,142.2c-0.1,58.2-0.1,117.3,0,174.4l0,41.4c0,10.8,1.7,21.7,5.1,32.4c14.9,47.1,58.1,78.8,107.5,78.9c27.4,0,54.8,0,82.2,0c42.7,0,85.5,0,128.2,0c4.3,0,8-0.1,11.4-0.4c19.7-1.4,37.6-7.4,53.1-17.9c33.7-22.8,50.9-54.8,51.1-95.2c0.2-48.8,0.2-98.5,0.1-146.5c0-21.8,0-43.5,0-65.3c0-8.1-0.8-16.2-2.4-24.1c-10.4-51.7-56.3-89.3-109-89.4c-13.8,0-27.6,0-41.3,0c-11.1,0-52.7,0-62.4,0l-4.2,0l-58.2,0c-15.7,0-31.3,0-47,0H144.7z"/>
        <path d="M379.2,251.6c0.9,70.8-56,128.6-125.9,129.3c-70.5,0.7-128.5-56.1-129.1-126c-0.6-70.1,55.4-127.6,124.9-129C320.4,124.5,378.2,181.9,379.2,251.6z M251.9,156.8c-53.8,0-96.9,42.9-96.9,96.6c0,53.6,43,96.7,96.6,96.7c53.5,0,96.7-43.1,96.7-96.6C348.3,200,305.3,156.8,251.9,156.8z"/>
        <path d="M397.4,89.5c10,0,18.2,8.2,18.2,18.2c0,10.1-8.3,18.3-18.3,18.2c-10-0.1-18.1-8.3-18.1-18.3C379.2,97.6,387.4,89.5,397.4,89.5z"/>
    </g>
</svg>
