<?xml version="1.0" encoding="utf-8"?>
<svg version="1.1" xmlns="http://www.w3.org/2000/svg" fill="#cccccc" viewBox="0 0 500 500" xml:space="preserve">
<g>
	<path d="M498.5,432.4c-2.9,1.9-5.7,4.3-8.8,5.5c-25.6,9.8-52.4,14-79.4,16.8c-44.8,4.7-89.7,5.1-134.7,2.3
		c-29.7-1.9-59.2-5.2-88.1-13c-7.3-2-14.4-4.8-21.5-7.3c-3.9-1.4-6.2-4.1-5.9-8.4c2.1-28.6,9.6-55.3,28.7-77.7
		c8.6-10.1,19.8-16.6,31.6-21.9c16.8-7.5,33.7-14.7,51.2-22.4c2.4,8.8,4.4,16.5,6.5,24.2c10,37.7,24.2,73.6,44.2,107.2
		c5.7,9.6,8.1,9.7,13.9,0c21.6-36.6,37.1-75.7,46.7-117c1-4.4,2.2-8.7,3.4-13.4c1,0.1,2.1-0.1,2.8,0.2c19.8,8.8,39.8,17.1,59.2,26.7
		c22.7,11.3,35.3,31.3,42.5,54.8c3.3,10.7,5.2,21.9,7.7,32.9C498.5,425.3,498.5,428.9,498.5,432.4z"/>
	<path d="M1.5,216c22.4-22.8,44.6-45.7,67.2-68.3c32.9-32.9,65.9-65.6,99-98.3c3-2.9,6.4-5.4,9.5-8.1c1.3,0,2.6,0,3.9,0
		c2.5,1.6,5.4,2.9,7.5,5c26.1,25.8,52.1,51.7,78.2,77.6c0.6,0.6,1.1,1.2,1.9,2.1c-10.1,10.3-18.2,21.8-22.1,36.6
		c-1.8-1.6-3.1-2.6-4.3-3.8c-17.3-17-34.6-34-51.9-51c-0.3-0.3-0.7-0.7-1-1c-9.1-8.4-11.1-8.5-20,0.3
		C127.1,148.5,85,190.1,42.8,231.7c-3.3,3.3-6.8,6.4-10.3,9.6c-3.9,3.5-7.4,4.2-11.2,0.6c-7-6.7-13.2-14-19.8-21.1
		C1.5,219.2,1.5,217.6,1.5,216z"/>
	<path d="M263.5,292.9c-1,0.6-1.6,1.1-2.4,1.4c-10.9,4.3-21.9,8.7-33.6,13.3c-0.4-2.7-0.8-4.8-1-7c-0.9-7.2-4.1-10.7-11.3-10.8
		c-23.8-0.3-47.5-0.4-71.3-0.2c-7.9,0.1-11.9,4.7-12,12.6c-0.4,29.3-0.8,58.5-1.2,87.8c-0.1,9.6-1.3,11.5-10.8,11.6
		c-23.8,0.4-47.5,0.2-71.3-0.1c-7.5-0.1-10.1-3.1-10.4-10.7c-0.6-17.6-0.8-35.2-0.9-52.9c-0.1-23.9-0.1-47.9,0.1-71.8
		c0-2,0.8-4.6,2.2-5.9c43.1-43.1,86.4-86.1,129.7-129c3.3-3.3,6.5-7.8,12.3-5.8c1.8,0.6,3.8,1.3,5,2.6
		c18.6,18.2,37.1,36.6,55.5,54.9c0.9,0.9,1.7,2.6,1.5,3.8c-1,7-1.4,14.3-3.6,20.9c-6.1,18-4.4,35.1,4.2,51.6
		c4.8,9.3,10.7,18.1,16,27.2C261.4,288.3,262.4,290.6,263.5,292.9z"/>
	<path d="M328.6,120.9c13.7,0.2,26.8,2.3,39,8.6c9.2,4.7,15.8,11.6,18.5,21.9c0.5,1.8,1.1,3.9,2.3,5.3c9.8,11.4,10.8,25.2,11.2,39.2
		c0.1,2.7-0.1,5.5,0.1,8.2c0.1,1.6,0.2,3.5,1.1,4.6c8,9.7,6,20.6,3.8,31.4c-2.1,10.4-7.5,19.1-14.2,27.2c-2.1,2.5-3.8,5.6-5,8.6
		c-5.7,14.6-13.8,27.3-27.1,36.3c-19.7,13.4-43.1,12.5-61.6-2.5c-10.1-8.3-17.2-18.7-22.2-30.7c-2-4.7-4.7-9.2-7.7-13.3
		c-10-13.6-16.4-28.2-13.9-45.5c0.4-2.5,0.8-5.5,2.3-7.3c3.6-4.4,4-9.4,4.3-14.6c0.5-8.4,0.5-16.8,1.6-25.2
		c3.3-25.4,22.1-44.8,48.9-50.5C315.9,121.6,322.3,121.5,328.6,120.9z"/>
	<path d="M329,431.2c-5.3-10.4-10.1-19.4-14.4-28.6c-1-2.1-1.1-5-0.8-7.4c0.6-4.3,1.7-8.6,2.7-12.8c1.9-7.9,2-8.1,10.3-8
		c16.6,0.3,12-0.8,16.5,12.8c2.9,8.7,1.7,16.1-3.2,23.7C336.3,416.8,333.2,423.4,329,431.2z"/>
	<path d="M313,342.8c10.5,0,20-0.1,29.4,0.1c0.8,0,2.4,2.2,2.3,3.2c-0.9,6.5-2.1,13.1-3.6,19.5c-0.2,1-2.2,2.3-3.3,2.3
		c-5.8,0.2-11.6,0.2-17.4,0c-1.1,0-2.8-0.9-3-1.6C315.8,358.8,314.5,351.3,313,342.8z"/>
</g>
</svg>
