<?xml version="1.0" encoding="utf-8"?>
<svg version="1.1" xmlns="http://www.w3.org/2000/svg" width="22px" height="22px" viewBox="0 0 500 500" fill="#ffffff" xml:space="preserve">
    <path d="M483.3,381.2L483.3,381.2l-92.1-61.5c-16.7-11.2-33.8-10.9-48.1,0.9c-34.4,28.2-53.7,19.7-55.8,18.7c-19.9-10-38.8-19.4-67.8-48.4c-36.2-36.2-49.2-59.3-58.6-78.1c-3.4-6.9-7.2-30.1,16.2-55.1c13.1-13.9,14.4-31.6,3.6-48.6c-7.6-11.9-7.6-11.9-13.5-20.6l-0.1-0.2c-5.7-8.4-17.6-25.9-48.1-71.5C111.4,5.6,100.4,0,86.3,0C70,0,61.6,8.4,55.5,14.5L24.8,45.2C1.9,68.1,0,82,0,96.5c0,11.3,7.7,45.7,28.2,89.7c18.9,40.4,54.9,102,119.3,166.2c64.2,64.5,125.8,100.5,166.2,119.3c44,20.6,78.4,28.2,89.7,28.2l0.7,0c14.4-0.2,28.1-2.2,50.7-24.8l30.7-30.7c6.1-6.1,14.5-14.5,14.5-30.8C500,399.6,494.4,388.6,483.3,381.2z M155.6,137.7c-33.6,35.8-28.4,73.3-21,88.2c10.4,20.8,24.8,46.4,64.1,85.7c32.3,32.3,54.2,43.3,75.3,53.9l0.1,0.1c6.4,3.2,14.6,4.9,23.1,4.9c14.3,0,37-4.7,64.4-27.2c2.9-2.4,4.6-2.4,5.3-2.4c2,0,4.8,1.2,8,3.3l92.1,61.5c2.2,1.5,3.7,2.9,3.7,8.1c0,3.7-0.6,4.8-5.9,10.1l-30.7,30.7c-15.8,15.8-22.1,16.1-30.5,16.2c-4.5-0.5-112-15.3-235.3-139C45.9,209.8,29.9,100.8,29.3,96.3c0-8.2,0.2-14.3,16.2-30.3l30.7-30.7c5.1-5.1,6.3-5.9,10.1-5.9c5.3,0,6.7,1.5,8.2,3.7c29.5,44.1,41.7,62.2,48.3,71.9c5.7,8.4,5.7,8.4,13,19.9C160.2,131.8,158.4,134.6,155.6,137.7z"/>
</svg>
