<?xml version="1.0" encoding="utf-8"?>
<svg version="1.1" xmlns="http://www.w3.org/2000/svg" fill="#ffffff" width="40px" height="40px" viewBox="0 0 500 500" xml:space="preserve">
    <path d="M253.5,445.1c-32.3,0.3-64.5-0.5-96.6-3.7c-27.8-2.7-55.6-5.8-83.3-9.6c-31.1-4.2-56.8-30-62.3-61C2.1,318.9-0.3,266.5,2.1,213.9c1.3-28.1,4.2-56.1,9.2-83.8c6-33,31.6-57.5,64.8-62.2c34.4-4.9,69-8.7,103.7-10.8c36.9-2.3,73.9-3.2,110.9-1.3c28,1.5,56,3.6,83.9,6.1c17.8,1.6,35.5,4.1,53.2,6.8c29.6,4.4,54.8,29.4,60.5,59.7c4.7,25,7.5,50.2,9,75.6c1.8,28.5,1.9,56.9,0.4,85.4c-1.5,27.7-4.2,55.2-9.4,82.5c-6.1,32.1-32.6,56.7-65.1,60.6c-24.7,2.9-49.4,6.3-74.2,8.4c-24.7,2.1-49.5,3-74.3,4.2C267.7,445.4,260.6,445.1,253.5,445.1z M249.6,410.2c15.7-0.5,31.4-0.6,47-1.5c20.9-1.2,41.8-2.5,62.6-4.5c19.8-1.9,39.5-4.7,59.2-7.1c18.2-2.2,31.9-15,35.2-33c4.9-26.9,7.6-54.1,8.8-81.5c1.1-23.9,1-47.8-0.4-71.7c-1.4-25.2-4.1-50.3-8.6-75.1c-3.2-17.4-16.5-30.2-34-32.7c-14.1-2-28.3-3.7-42.5-5.4c-28.7-3.4-57.6-5.6-86.5-6.6c-35.9-1.3-71.8-0.9-107.7,1.3c-32,2-63.9,5.2-95.7,9.7c-6.8,1-13.6,1.7-19.8,4.9c-13.1,7-19.7,18.2-22,32.6c-5,30.3-7.8,60.8-8.5,91.5c-1.1,44.4,1.5,88.6,9.2,132.5c3.1,17.6,16.5,31,34.1,33.3c25,3.2,50.1,6.2,75.2,8.6C186.7,408.7,218.1,409.9,249.6,410.2z"/>
    <path d="M178.9,161.5c59.2,29.6,118,59,177.4,88.7c-59.3,29.7-118.2,59.1-177.4,88.7C178.9,279.7,178.9,220.8,178.9,161.5z"/>
</svg>
