<?xml version="1.0" standalone="no"?>
<!DOCTYPE svg PUBLIC "-//W3C//DTD SVG 20010904//EN"
 "http://www.w3.org/TR/2001/REC-SVG-20010904/DTD/svg10.dtd">
<svg version="1.0" xmlns="http://www.w3.org/2000/svg"
 width="2180.000000pt" height="2180.000000pt" viewBox="0 0 2180.000000 2180.000000"
 preserveAspectRatio="xMidYMid meet">
<metadata>
Created by potrace 1.11, written by Peter Selinger 2001-2013
</metadata>
<g transform="translate(0.000000,2180.000000) scale(0.100000,-0.100000)"
fill="#000000" stroke="none">
<path d="M10819 21726 c-41 -41 -265 -269 -499 -506 -234 -238 -497 -506 -585
-595 -361 -367 -981 -998 -1145 -1165 -96 -98 -377 -384 -625 -635 -247 -251
-512 -521 -589 -599 -76 -77 -338 -343 -581 -591 -676 -687 -716 -728 -713
-731 2 -2 165 -168 363 -370 198 -201 453 -461 568 -578 l207 -211 326 330
c179 182 447 454 596 605 149 151 465 473 703 715 239 242 504 512 590 600 87
88 365 371 619 628 253 258 545 555 649 660 l188 192 312 -317 c171 -174 443
-449 602 -611 901 -916 1174 -1193 1299 -1320 76 -78 353 -360 616 -627 263
-267 559 -567 657 -667 98 -101 182 -183 185 -183 4 0 13 6 20 14 7 7 213 217
458 466 686 697 661 670 653 685 -5 7 -217 225 -473 485 -256 259 -532 540
-613 623 -82 84 -359 366 -617 627 -257 261 -518 527 -580 590 -62 63 -316
321 -564 573 -248 252 -525 534 -616 627 -91 92 -365 371 -610 620 -245 248
-508 516 -586 596 l-141 144 -74 -74z"/>
<path d="M5465 16386 c-94 -96 -380 -387 -637 -647 -256 -261 -542 -551 -635
-646 -92 -94 -364 -371 -605 -615 -240 -244 -493 -501 -563 -573 -70 -71 -336
-342 -591 -600 -255 -259 -539 -548 -631 -642 -92 -94 -361 -368 -598 -608
-539 -548 -575 -585 -575 -594 0 -3 24 -29 52 -57 43 -41 732 -741 1011 -1025
37 -38 71 -69 75 -69 7 0 298 294 962 971 85 86 351 357 591 601 240 244 503
511 584 593 81 83 351 356 599 608 248 253 516 525 594 605 79 81 233 238 343
348 l200 201 199 -201 c109 -110 274 -278 367 -373 92 -94 364 -370 603 -613
239 -243 502 -510 584 -593 81 -84 354 -361 606 -617 252 -256 522 -530 600
-610 79 -80 316 -321 527 -536 l385 -392 102 103 c55 57 301 307 546 556 245
249 455 462 468 473 12 11 22 23 22 27 0 10 -47 58 -591 611 -257 260 -525
532 -595 605 -71 72 -331 337 -579 588 -247 251 -533 542 -635 645 -102 104
-365 372 -585 595 -220 224 -483 492 -585 595 -102 104 -365 371 -585 595
-220 223 -501 509 -625 636 -124 126 -227 229 -230 229 -3 0 -82 -78 -175
-174z"/>
<path d="M16029 16448 c-311 -317 -1000 -1017 -1123 -1142 -76 -77 -344 -350
-596 -606 -252 -256 -534 -542 -626 -637 -93 -94 -360 -366 -594 -604 -234
-237 -496 -504 -584 -593 -87 -88 -346 -351 -575 -584 -403 -410 -717 -730
-774 -790 l-27 -29 132 -135 c477 -488 1003 -1018 1008 -1018 7 0 241 235 515
515 70 72 339 345 598 609 260 263 528 535 596 605 68 69 338 344 601 611 263
267 535 544 605 615 70 72 314 320 543 552 l415 423 156 -160 c86 -87 343
-348 571 -580 228 -232 498 -506 600 -610 102 -103 383 -389 625 -635 242
-246 507 -515 589 -599 82 -83 338 -344 570 -579 231 -236 498 -506 591 -602
l170 -173 326 331 c680 691 807 822 809 830 1 5 -189 202 -422 439 -233 237
-495 504 -583 593 -231 236 -1008 1025 -1750 1780 -236 240 -504 512 -594 603
-187 191 -974 991 -1382 1405 l-276 281 -114 -116z"/>
<path d="M610 4698 l0 -4698 660 0 660 0 2 3683 3 3682 34 -180 c47 -252 71
-376 76 -405 2 -14 29 -155 59 -315 30 -159 57 -303 60 -320 11 -60 28 -151
32 -170 2 -11 12 -67 23 -125 11 -58 56 -298 101 -535 44 -236 82 -441 85
-455 2 -14 16 -86 30 -160 14 -74 39 -207 55 -295 31 -163 36 -191 45 -235 2
-14 7 -41 10 -60 3 -19 17 -91 30 -160 13 -69 26 -136 29 -150 4 -24 34 -185
42 -225 2 -11 11 -56 18 -100 13 -69 48 -259 60 -320 2 -11 12 -60 21 -110 9
-49 19 -99 21 -110 5 -26 25 -133 30 -165 3 -14 7 -32 9 -40 2 -8 7 -31 10
-50 11 -69 55 -306 64 -350 6 -25 15 -74 21 -110 6 -36 17 -96 25 -135 15 -75
17 -86 34 -185 7 -36 18 -96 26 -135 8 -38 16 -81 18 -95 3 -14 10 -52 16 -85
6 -33 14 -73 17 -90 3 -16 23 -124 45 -240 22 -115 41 -221 44 -235 3 -14 21
-110 40 -215 51 -268 75 -396 80 -425 2 -14 9 -50 15 -80 6 -30 13 -68 16 -85
3 -16 13 -70 22 -120 l17 -90 682 -3 682 -2 10 52 c6 29 33 172 60 318 28 146
66 348 85 450 19 102 37 199 40 215 6 29 10 50 21 105 2 14 7 41 10 60 3 19 8
42 10 50 2 8 6 26 9 40 2 14 11 66 21 115 9 50 19 101 21 115 4 22 39 207 50
265 2 11 7 36 10 55 10 52 11 56 33 170 11 58 34 179 51 270 17 91 35 185 40
210 5 25 11 61 14 80 4 19 9 46 11 60 3 14 13 63 21 110 9 46 17 87 19 90 2 3
6 30 10 60 4 30 9 58 11 61 2 3 6 21 9 40 3 19 19 104 35 189 16 85 31 166 34
180 2 14 14 77 26 140 12 63 24 126 26 140 2 14 7 36 10 50 3 14 8 36 10 50 7
39 23 123 28 146 2 12 7 37 10 55 3 19 28 151 55 294 27 143 53 276 56 295 3
19 10 53 15 75 5 22 12 63 16 90 3 28 8 53 10 56 2 4 6 24 9 45 4 22 8 46 10
54 2 8 7 29 9 45 5 26 96 515 110 585 12 62 56 298 61 330 3 19 10 53 15 75 5
22 17 81 26 130 25 140 53 287 84 450 16 83 43 222 59 310 17 88 33 174 36
190 3 17 14 77 25 135 11 58 22 114 24 125 2 11 7 40 11 65 4 25 10 50 14 57
3 7 6 -1642 6 -3665 l1 -3677 659 0 660 0 0 4695 0 4695 -1063 0 c-944 1
-1063 -1 -1067 -15 -2 -8 -18 -87 -35 -175 -18 -88 -34 -169 -36 -180 -2 -11
-7 -33 -10 -50 -3 -16 -14 -75 -25 -130 -11 -55 -22 -111 -25 -125 -35 -181
-77 -394 -85 -430 -12 -57 -76 -384 -84 -430 -3 -19 -8 -42 -10 -50 -2 -8 -7
-29 -9 -45 -3 -17 -37 -190 -76 -385 -39 -195 -73 -366 -75 -380 -3 -14 -7
-36 -10 -50 -14 -72 -45 -228 -49 -250 -2 -14 -20 -104 -40 -200 -19 -96 -37
-187 -40 -201 -2 -14 -13 -73 -25 -130 -11 -57 -23 -117 -26 -134 -3 -16 -8
-41 -11 -55 -3 -14 -25 -128 -50 -255 -25 -126 -57 -286 -71 -355 -13 -69 -27
-138 -30 -155 -3 -16 -22 -116 -44 -221 -21 -105 -41 -207 -44 -225 -3 -19 -8
-41 -10 -49 -2 -8 -7 -31 -10 -50 -3 -19 -26 -135 -50 -258 -25 -122 -47 -234
-50 -250 -5 -31 -7 -37 -36 -182 -11 -58 -23 -116 -25 -130 -3 -14 -14 -70
-25 -125 -11 -55 -22 -111 -24 -125 -3 -14 -7 -36 -10 -50 -3 -14 -12 -60 -20
-103 -8 -44 -17 -82 -19 -86 -3 -4 -7 -25 -10 -46 -2 -22 -9 -62 -15 -90 -6
-27 -12 -59 -14 -70 -3 -11 -10 -53 -17 -93 -14 -76 -18 -82 -26 -36 -3 16
-23 117 -45 224 -22 107 -42 209 -44 225 -5 28 -10 54 -19 100 -30 143 -59
286 -63 310 -3 17 -27 140 -54 275 -27 135 -52 258 -55 275 -3 16 -9 48 -14
70 -5 22 -12 56 -15 75 -3 19 -13 69 -22 110 -8 41 -17 86 -20 100 -2 14 -18
93 -34 175 -17 83 -33 161 -35 175 -3 14 -25 126 -50 250 -24 124 -46 234 -48
245 -5 23 -76 380 -82 410 -5 23 -33 167 -40 205 -3 14 -12 57 -20 95 -8 39
-24 117 -35 175 -25 127 -21 110 -70 355 -23 110 -43 211 -45 225 -3 14 -14
70 -25 125 -11 55 -22 114 -24 130 -3 17 -9 48 -15 70 -5 22 -37 180 -71 350
-33 171 -63 319 -65 330 -2 11 -9 45 -15 75 -5 30 -12 65 -15 76 -35 172 -136
688 -140 714 -3 19 -7 42 -10 50 -3 8 -8 26 -10 40 -3 14 -11 57 -19 95 -8 39
-16 81 -18 95 -5 24 -19 97 -23 113 -1 4 -2 13 -3 20 -1 10 -212 12 -1061 13
l-1060 0 0 -4698z"/>
<path d="M8790 4697 l0 -4699 1638 5 c900 3 1675 7 1722 10 47 3 150 9 230 12
80 4 161 8 180 10 19 2 69 6 110 10 82 7 321 34 348 40 203 41 333 88 484 176
178 103 392 292 530 470 84 108 188 257 188 269 0 6 3 10 8 10 4 0 12 10 18
23 6 12 39 74 73 137 57 107 147 319 185 435 33 104 90 334 101 415 4 24 8 47
10 50 2 3 6 30 9 60 4 30 9 71 12 90 32 225 37 701 8 910 -12 86 -15 109 -24
165 -15 91 -20 116 -32 160 -5 22 -12 48 -13 57 -11 55 -53 189 -92 292 -165
436 -454 798 -815 1022 -95 59 -283 154 -305 154 -25 0 -12 20 30 47 455 294
809 905 902 1558 2 11 6 40 10 65 27 193 27 575 0 755 -3 17 -7 53 -10 80 -3
28 -8 57 -10 65 -2 8 -7 31 -10 50 -33 202 -137 501 -245 705 -259 490 -591
801 -999 934 -52 17 -108 34 -125 37 -16 3 -32 6 -35 8 -3 2 -22 7 -41 10 -19
3 -67 12 -106 20 -39 8 -95 18 -125 21 -30 3 -61 8 -69 10 -8 2 -46 6 -83 10
-37 3 -76 8 -86 10 -9 2 -68 6 -131 10 -63 4 -142 9 -175 12 -33 3 -781 6
-1662 7 l-1603 2 0 -4699z m3150 3119 c288 -18 395 -33 488 -67 130 -47 264
-166 355 -315 75 -124 124 -270 147 -444 13 -90 16 -337 6 -405 -3 -22 -8 -58
-11 -81 -26 -218 -148 -466 -292 -594 -55 -49 -168 -125 -209 -141 -16 -5 -42
-17 -59 -24 -33 -15 -122 -41 -170 -50 -28 -5 -56 -8 -195 -21 -30 -3 -447 -8
-926 -11 l-871 -5 0 1087 0 1087 826 -5 c454 -3 864 -8 911 -11z m-125 -3730
c668 -35 870 -101 1107 -364 60 -66 181 -270 192 -325 2 -7 6 -19 9 -27 22
-58 41 -136 62 -255 13 -73 19 -180 18 -310 0 -160 -8 -250 -29 -350 -9 -38
-17 -79 -19 -89 -21 -97 -97 -265 -167 -370 -89 -131 -230 -252 -353 -303 -83
-35 -236 -64 -410 -78 -38 -3 -95 -8 -125 -11 -30 -4 -469 -9 -976 -11 l-921
-5 0 1249 c0 686 1 1250 3 1253 4 8 1460 4 1609 -4z"/>
<path d="M15869 9375 c-1 -26 -1 -9346 0 -9362 1 -10 541 -13 2666 -13 l2665
0 0 795 0 795 -1960 0 -1960 0 0 113 c0 125 0 2340 0 2399 l0 38 1762 2 1762
3 1 783 c0 512 -3 786 -10 791 -5 4 -797 7 -1758 6 -962 0 -1750 2 -1753 6 -3
6 -6 1226 -4 1959 l0 116 1891 -1 c1040 0 1893 4 1896 8 8 13 6 1567 -2 1575
-4 4 -1174 7 -2601 7 l-2594 1 -1 -21z"/>
</g>
</svg>
